<svg width="22" height="22" viewBox="0 0 22 22" fill="none" xmlns="http://www.w3.org/2000/svg">
<path d="M20.137 4.88033L19.8078 4.98536L18.0568 5.1394L17.5595 5.93062L17.2023 5.81859L15.8085 4.55824L15.6053 3.90706L15.3322 3.20687L14.4567 2.42266L13.4201 2.2196L13.399 2.69573L14.4146 3.683L14.9119 4.26416L14.3516 4.55824L13.8963 4.42521L13.2169 4.13813L13.2379 3.59198L12.3484 3.22088L12.0472 4.50923L11.1507 4.71228L11.2418 5.43348L12.4115 5.65754L12.6146 4.50923L13.5811 4.64927L14.0294 4.91534H14.7508L15.2411 5.90261L16.5509 7.23297L16.4528 7.75111L15.3952 7.61808L13.5741 8.53533L12.2574 10.1108L12.0893 10.8109H11.627L10.7515 10.4048L9.89697 10.8109L10.1071 11.7072L10.4783 11.2801L11.1297 11.2591L11.0877 12.0643L11.627 12.2253L12.1663 12.8345L13.0488 12.5894L14.0574 12.7505L15.2271 13.0656L15.8085 13.1356L16.7961 14.2559L18.7082 15.3762L17.4755 17.7358L16.1727 18.345L15.6754 19.6964L13.7843 20.9567L13.5811 21.6849C18.407 20.5226 22.0001 16.1884 22.0001 11.007C22.0001 8.73138 21.3137 6.63081 20.137 4.88033Z" fill="white"/>
<path d="M12.2642 16.7485L11.4658 15.2641L12.2012 13.7307L11.4658 13.5136L10.6393 12.6874L8.81121 12.2743L8.20185 11.007V11.7632H7.93569L6.35976 9.62759V7.87011L5.20407 5.98659L3.36899 6.30868H2.12926L1.50589 5.90257L2.29736 5.2724L1.51289 5.45445C0.553327 7.08589 0 8.97641 0 11C0 17.0706 4.92391 22 10.9965 22C11.4658 22 11.921 21.958 12.3763 21.9019L12.2642 20.5716C12.2642 20.5716 12.7685 18.59 12.7685 18.527C12.7685 18.457 12.2642 16.7485 12.2642 16.7485Z" fill="white"/>
<path d="M4.0896 3.54997L6.04376 3.27689L6.94729 2.78676L7.96289 3.08084L9.58085 2.98982L10.1342 2.12158L10.9397 2.25461L12.9078 2.07257L13.4471 1.4774L14.2106 0.966264L15.2892 1.12731L15.6815 1.06429C14.2596 0.385105 12.6767 0 10.9957 0C7.58467 0 4.53086 1.55442 2.51367 3.99809H2.52068L4.0896 3.54997ZM11.465 1.0923L12.5856 0.47613L13.3071 0.889243L12.2634 1.68046L11.2688 1.77849L10.8206 1.4844L11.465 1.0923ZM8.138 1.18332L8.63529 1.38638L9.28667 1.18332L9.63688 1.79949L8.138 2.1916L7.41657 1.77148C7.41657 1.77148 8.11698 1.31636 8.138 1.18332Z" fill="white"/>
</svg>
