<svg xmlns="http://www.w3.org/2000/svg" width="45" height="45"><path fill="#293a53" fill-rule="evenodd" d="M27.78 44.346l.41-1.487 3.863-2.578 1.012-2.76 2.67-1.24 2.53-4.83-3.9-2.3-2.026-2.298-1.194-.14-2.393-.643-2.06-.325-1.804.507L23.773 25l-1.106-.323.093-1.653-1.335.04-.76.875-.434-1.84 1.745-.828 1.796.828h.964l.35-1.427 2.686-3.22 3.73-1.884 2.16.275.196-1.056-2.677-2.715-1-2.023h-1.476l-.92-.538-1.978-.292-.414 2.35-2.396-.46-.182-1.47 1.84-.417.606-2.637 1.825.75-.047 1.12 1.39.58.928.274 1.14-.596-1.015-1.195L27.4 5.506l.05-.97 2.116.414 1.793 1.61.555 1.427.414 1.337 2.854 2.573.735.233 1.012-1.617 3.586-.32.674-.214a22.4 22.4 0 0 1 3.81 12.518c0 10.602-7.345 19.47-17.218 21.848zM29.06 1.95L27.5 2.993l-1.107 1.22-4.02.376-1.654-.272-1.135 1.784-3.312.183-2.073-.597-1.843 1-3.996.557-3.215.925a22.429 22.429 0 0 1 26.93-6.019l-.805.122-2.21-.332zm-10.077.47l-1.328.422-1.015-.422c-.033.268-1.475 1.196-1.474 1.196l1.474.862 3.066-.805-.723-1.253zm6.762-1.45l-2.298 1.265-1.32.822.918.596 2.04-.205 2.136-1.625-1.475-.853zM4.355 12.908h2.53l3.753-.67L13 16.082v3.59l3.225 4.372h.547v-1.543l1.242 2.6 3.742.84 1.69 1.696 1.504.45-1.504 3.134 1.64 3.038 1.034 3.634c0 .137-1.032 4.185-1.032 4.185l.235 2.726a23.52 23.52 0 0 1-2.824.196C10.072 45-.001 34.924-.001 22.5a22.37 22.37 0 0 1 3.088-11.339l1.62-.374-1.624 1.287 1.272.833z"/></svg>