<svg width="10" height="16" viewBox="0 0 10 16" fill="none" xmlns="http://www.w3.org/2000/svg">
<path d="M8.85001 0.491637C8.75324 0.39463 8.63829 0.317666 8.51174 0.265152C8.38519 0.212639 8.24952 0.185608 8.1125 0.185608C7.97549 0.185608 7.83982 0.212639 7.71327 0.265152C7.58672 0.317666 7.47177 0.39463 7.375 0.491637L0.450002 7.41664C0.372749 7.49373 0.31146 7.5853 0.269642 7.68612C0.227824 7.78693 0.206299 7.895 0.206299 8.00414C0.206299 8.11328 0.227824 8.22134 0.269642 8.32216C0.31146 8.42297 0.372749 8.51454 0.450002 8.59164L7.375 15.5166C7.78334 15.925 8.44167 15.925 8.85001 15.5166C9.25834 15.1083 9.25834 14.45 8.85001 14.0416L2.81667 7.99997L8.85834 1.9583C9.25834 1.5583 9.25834 0.891637 8.85001 0.491637Z" fill="#293A53"/>
</svg>
