<svg xmlns="http://www.w3.org/2000/svg" viewBox="0 0 408.788 408.788" width="17" height="17"><path fill="#475993" d="M353.7 0H55.087C24.665 0 .002 24.662.002 55.085V353.7c0 30.423 24.662 55.085 55.085 55.085h147.275l.25-146.078h-37.95a8.954 8.954 0 0 1-8.954-8.92l-.182-47.087a8.955 8.955 0 0 1 8.955-8.989h37.882v-45.498c0-52.8 32.247-81.55 79.348-81.55h38.65a8.955 8.955 0 0 1 8.955 8.955v39.704a8.955 8.955 0 0 1-8.95 8.955l-23.72.01c-25.615 0-30.575 12.172-30.575 30.035v39.39h56.285c5.363 0 9.524 4.683 8.892 10.01l-5.58 47.087a8.955 8.955 0 0 1-8.892 7.901h-50.453l-.25 146.078h87.63c30.422 0 55.084-24.662 55.084-55.084V55.085C408.786 24.662 384.124 0 353.7 0z"/></svg>