<svg xmlns="http://www.w3.org/2000/svg" viewBox="0 0 431.855 431.855" width="23" height="23"><path fill="#293a53" d="M215.936 0C96.722 0 .008 96.592.008 215.814c0 119.336 96.714 216.04 215.927 216.04 119.28 0 215.91-96.706 215.91-216.04C431.847 96.592 335.214 0 215.936 0zm15.387 335.962c-5.015 4.463-10.827 6.706-17.41 6.706-6.812 0-12.754-2.203-17.826-6.617-5.08-4.406-7.625-10.575-7.625-18.5 0-7.03 2.463-12.95 7.373-17.745s10.933-7.194 18.078-7.194c7.03 0 12.95 2.398 17.753 7.194 4.796 4.796 7.202 10.713 7.202 17.745-.01 7.812-2.52 13.95-7.544 18.412zm62.533-155.028c-3.853 7.145-8.43 13.306-13.737 18.5-5.292 5.194-14.8 13.924-28.548 26.198-3.788 3.463-6.836 6.503-9.12 9.12-2.284 2.626-3.99 5.023-5.105 7.202a34.697 34.697 0 0 0-2.593 6.535c-.6 2.17-1.528 6-2.772 11.47-2.113 11.608-8.754 17.41-19.915 17.41-5.804 0-10.68-1.894-14.656-5.7-3.96-3.796-5.934-9.43-5.934-16.907 0-9.372 1.455-17.493 4.357-24.36 2.886-6.87 6.747-12.892 11.543-18.086 4.804-5.194 11.274-11.356 19.427-18.5 7.145-6.25 12.307-10.965 15.485-14.144a47.87 47.87 0 0 0 8.031-10.632c2.187-3.9 3.26-8.145 3.26-12.72 0-8.933-3.308-16.46-9.957-22.597-6.64-6.137-15.21-9.2-25.703-9.2-12.282 0-21.32 3.097-27.125 9.29s-10.705 15.314-14.73 27.37c-3.804 12.616-11.006 18.923-21.598 18.923-6.25 0-11.526-2.203-15.826-6.61-4.292-4.406-6.438-9.177-6.438-14.314 0-10.6 3.406-21.346 10.2-32.23 6.812-10.884 16.745-19.9 29.807-27.036 13.054-7.145 28.296-10.722 45.7-10.722 16.184 0 30.466 2.99 42.854 8.966 12.388 5.966 21.963 14.087 28.718 24.36 6.747 10.266 10.128 21.427 10.128 33.482.016 9.47-1.9 17.787-5.763 24.932z"/></svg>