<svg width="22" height="22" viewBox="0 0 22 22" fill="none" xmlns="http://www.w3.org/2000/svg">
<path d="M11.0003 0C4.92676 0 0 4.92064 0 10.9941C0 17.0738 4.92676 22 11.0003 22C17.0768 22 21.9995 17.0732 21.9995 10.9941C21.9995 4.92064 17.0768 0 11.0003 0ZM11.7843 17.115C11.529 17.3422 11.2326 17.4568 10.8973 17.4568C10.5504 17.4568 10.2478 17.3448 9.98902 17.1196C9.73023 16.8949 9.60083 16.5806 9.60083 16.1771C9.60083 15.819 9.72615 15.5174 9.97629 15.2734C10.2264 15.0294 10.5331 14.9071 10.8973 14.9071C11.2555 14.9071 11.5571 15.0294 11.8016 15.2734C12.0461 15.5179 12.1684 15.819 12.1684 16.1771C12.1679 16.575 12.04 16.8878 11.7843 17.115ZM14.9698 9.21723C14.7736 9.58147 14.5403 9.89529 14.2698 10.1597C14.0003 10.4241 13.5153 10.8688 12.8154 11.4944C12.6223 11.6707 12.4669 11.8255 12.3508 11.959C12.2346 12.093 12.1475 12.2148 12.091 12.3258C12.0339 12.4369 11.9901 12.5479 11.959 12.659C11.9279 12.7695 11.8811 12.9646 11.8179 13.2433C11.7104 13.8348 11.3721 14.1302 10.8031 14.1302C10.5076 14.1302 10.259 14.0339 10.0563 13.8404C9.85453 13.6468 9.75417 13.36 9.75417 12.9789C9.75417 12.5016 9.82855 12.0879 9.97629 11.7379C10.1235 11.3879 10.3202 11.0813 10.5642 10.8163C10.8087 10.552 11.1383 10.2376 11.554 9.87389C11.9183 9.55549 12.1811 9.31555 12.3431 9.15355C12.5056 8.99104 12.6417 8.8107 12.7522 8.61202C12.8638 8.41283 12.9183 8.19683 12.9183 7.96402C12.9183 7.50909 12.7497 7.12548 12.4109 6.81269C12.0726 6.4999 11.636 6.3435 11.1016 6.3435C10.476 6.3435 10.0155 6.50142 9.72004 6.81676C9.42457 7.13211 9.17443 7.59671 8.96964 8.21109C8.77606 8.854 8.40875 9.17494 7.86926 9.17494C7.55086 9.17494 7.28188 9.06287 7.06282 8.83821C6.84427 8.61355 6.73475 8.37054 6.73475 8.1092C6.73475 7.5692 6.90846 7.02156 7.25488 6.46729C7.60181 5.91302 8.10768 5.45351 8.77351 5.08978C9.43832 4.72604 10.2152 4.54366 11.1016 4.54366C11.9259 4.54366 12.6539 4.69598 13.2846 5.00063C13.9158 5.30476 14.4033 5.71842 14.7477 6.24161C15.0915 6.7648 15.2637 7.33333 15.2637 7.9472C15.2642 8.42964 15.1659 8.85349 14.9698 9.21723Z" fill="white"/>
</svg>
