<svg xmlns="http://www.w3.org/2000/svg" width="22" height="21" viewBox="0 0 512 512"><linearGradient id="A" gradientUnits="userSpaceOnUse" x1="32" y1="383.692" x2="224" y2="383.692"><stop offset="0" stop-color="#5594fd"/><stop offset="1" stop-color="#3268ff"/></linearGradient><path d="M32,271.7v192c0,17.7,14.4,32,32,32h160v-224H32z" fill="url(#A)"/><linearGradient id="B" gradientUnits="userSpaceOnUse" x1="0" y1="128" x2="512" y2="128"><stop offset="0" stop-color="#5594fd"/><stop offset="1" stop-color="#3268ff"/></linearGradient><path d="M480 143.7H378.8c7.3-5 13.5-9.9 17.9-14.3 25.8-26 25.8-68.2 0-94.1-25.1-25.3-68.8-25.2-93.9 0-13.9 13.9-50.7 70.6-45.6 108.4h-2.3c5.1-37.9-31.7-94.5-45.6-108.4-25.1-25.2-68.8-25.2-93.9 0-25.8 26-25.8 68.2 0 94.1 4.4 4.4 10.6 9.3 17.9 14.3H32c-17.6 0-32 14.4-32 32v48c0 8.8 7.2 16 16 16h208v-64h64v64h208c8.8 0 16-7.2 16-16v-48c0-17.6-14.3-32-32-32zm-257.9-1.1s-1.3 1.1-5.9 1.1c-22.1 0-64.3-23-78.1-36.9-13.4-13.5-13.4-35.5 0-49 6.5-6.5 15.1-10.1 24.3-10.1 9.1 0 17.7 3.6 24.2 10.1 21.5 21.7 43 77.1 35.5 84.8zm73.7 1.1c-4.5 0-5.9-1-5.9-1.1-7.5-7.7 14-63.1 35.6-84.8 12.9-13 35.5-13.1 48.5 0 13.4 13.5 13.4 35.5 0 49-13.9 13.9-56.1 36.9-78.2 36.9z" fill="url(#B)"/><linearGradient id="C" gradientUnits="userSpaceOnUse" x1="288" y1="383.692" x2="480" y2="383.692"><stop offset="0" stop-color="#5594fd"/><stop offset="1" stop-color="#3268ff"/></linearGradient><path d="M288,271.7v224h160c17.7,0,32-14.3,32-32v-192H288z" fill="url(#C)"/></svg>