<svg width="22" height="22" viewBox="0 0 22 22" fill="none" xmlns="http://www.w3.org/2000/svg">
<path fill-rule="evenodd" clip-rule="evenodd" d="M21.9314 9.77776C21.897 9.46836 21.5361 9.23589 21.2242 9.23589C20.2166 9.23589 19.3219 8.6441 18.9462 7.72899C18.5631 6.79177 18.8103 5.69822 19.5609 5.00902C19.7975 4.79293 19.8261 4.43114 19.628 4.17985C19.1123 3.52503 18.5254 2.93324 17.8853 2.42002C17.6348 2.21866 17.2665 2.24649 17.0496 2.48796C16.3939 3.21399 15.216 3.48411 14.3058 3.10431C13.3587 2.70569 12.7612 1.74638 12.8201 0.71585C12.8398 0.392532 12.6032 0.110959 12.2799 0.0733066C11.4581 -0.0216425 10.6297 -0.0249166 9.80542 0.0667584C9.48619 0.101955 9.25045 0.37698 9.26109 0.696205C9.2971 1.71609 8.6922 2.65903 7.75496 3.04292C6.85537 3.41044 5.68648 3.14278 5.03164 2.4233C4.81555 2.18592 4.45375 2.15728 4.20163 2.35372C3.5427 2.87103 2.94271 3.46283 2.42211 4.11274C2.21911 4.36566 2.24858 4.73154 2.48759 4.94845C3.25294 5.64174 3.50014 6.7443 3.10232 7.69297C2.72252 8.59744 1.78364 9.18023 0.708885 9.18023C0.360183 9.16878 0.111344 9.40287 0.0736906 9.72046C-0.0228982 10.5472 -0.0245353 11.3886 0.0687793 12.2219C0.103158 12.5321 0.47478 12.7629 0.789921 12.7629C1.74762 12.7384 2.66767 13.3318 3.05321 14.2698C3.43793 15.207 3.19073 16.2998 2.43848 16.9898C2.20274 17.2059 2.17327 17.5669 2.37136 17.819C2.88213 18.4697 3.46903 19.0623 4.11159 19.5796C4.36371 19.7826 4.73042 19.754 4.94897 19.5133C5.60708 18.7856 6.78498 18.5163 7.69111 18.8961C8.64063 19.2931 9.23735 20.2524 9.17923 21.2838C9.16041 21.6071 9.39779 21.8895 9.71948 21.9263C10.1402 21.9754 10.5626 22 10.9866 22C11.3893 22 11.792 21.9779 12.194 21.9329C12.5132 21.8977 12.7489 21.6227 12.7383 21.3026C12.7015 20.2836 13.3072 19.3406 14.2436 18.9567C15.1489 18.5867 16.3137 18.8577 16.9677 19.5763C17.1855 19.8129 17.5448 19.8415 17.7977 19.6459C18.4559 19.1302 19.0542 18.5385 19.5773 17.8869C19.7803 17.6348 19.7516 17.2681 19.5118 17.0512C18.7464 16.3579 18.4976 15.2545 18.8954 14.3075C19.2695 13.4153 20.1732 12.8161 21.1456 12.8161L21.2815 12.8194C21.5966 12.8448 21.8872 12.6025 21.9249 12.28C22.0231 11.4525 22.0247 10.611 21.9314 9.77776ZM11.0177 14.6914C8.99424 14.6914 7.34896 13.0453 7.34896 11.0227C7.34896 8.99934 8.99506 7.3541 11.0177 7.3541C13.0411 7.3541 14.6864 9.00016 14.6864 11.0227C14.6873 13.0453 13.0411 14.6914 11.0177 14.6914Z" fill="white"/>
</svg>
