<svg xmlns="http://www.w3.org/2000/svg" width="17" height="14"><path d="M17 1.677c-.432.68-1.008 1.288-1.73 1.823v.438c0 2.552-.906 4.867-2.72 6.945S8.332 14 5.33 14C3.4 14 1.633 13.465 0 12.396l.828.073c1.61 0 3.05-.5 4.322-1.53a3.48 3.48 0 0 1-2.017-.711 3.34 3.34 0 0 1-1.225-1.732c.288.05.504.073.648.073.24 0 .552-.05.936-.146-.792-.17-1.46-.577-2-1.22s-.8-1.39-.8-2.242v-.036c.528.292 1.056.438 1.585.438C1.237 4.68.72 3.694.72 2.406a3.54 3.54 0 0 1 .468-1.75c1.85 2.31 4.238 3.536 7.167 3.682-.048-.17-.072-.437-.072-.802 0-.997.336-1.835 1.008-2.516S10.793 0 11.778 0s1.825.377 2.52 1.13c.72-.122 1.465-.413 2.233-.875-.24.85-.756 1.507-1.55 1.97.744-.073 1.417-.255 2.017-.547z" fill="#293a53" fill-rule="evenodd"/></svg>