<svg width="24" height="24" viewBox="0 0 24 24" fill="none" xmlns="http://www.w3.org/2000/svg">
<path d="M21.6737 9.69258C21.677 9.75036 21.6727 9.80916 21.6582 9.86757L20.3629 15.0489C20.2976 15.3099 20.0636 15.4935 19.7947 15.4949L12.0227 15.5341C12.0217 15.5341 12.0207 15.5341 12.0197 15.5341H4.24766C3.97729 15.5341 3.7417 15.3499 3.67639 15.0876L2.38106 9.88664C2.36614 9.82667 2.36182 9.76622 2.36559 9.70695C1.8645 9.54907 1.5 9.08017 1.5 8.52757C1.5 7.84576 2.05464 7.29112 2.73645 7.29112C3.41826 7.29112 3.9729 7.84576 3.9729 8.52757C3.9729 8.91154 3.79697 9.25507 3.5215 9.48203L5.14324 11.116C5.55312 11.529 6.12188 11.7658 6.70376 11.7658C7.39178 11.7658 8.04776 11.4391 8.46085 10.8917L11.1261 7.36021C10.9022 7.13647 10.7636 6.82732 10.7636 6.48645C10.7636 5.80464 11.3182 5.25 12 5.25C12.6818 5.25 13.2364 5.80464 13.2364 6.48645C13.2364 6.81711 13.1052 7.11723 12.893 7.33932C12.8937 7.34027 12.8946 7.34105 12.8953 7.34207L15.5412 10.8833C15.9541 11.4359 16.6125 11.7659 17.3024 11.7659C17.8897 11.7659 18.4419 11.5372 18.8571 11.1219L20.489 9.48996C20.2077 9.26308 20.0271 8.91625 20.0271 8.52757C20.0271 7.84576 20.5817 7.29112 21.2636 7.29112C21.9454 7.29112 22.5 7.84576 22.5 8.52757C22.5 9.06541 22.1542 9.52285 21.6737 9.69258ZM20.2365 17.379C20.2365 17.0538 19.9729 16.7902 19.6477 16.7902H4.41778C4.09262 16.7902 3.829 17.0538 3.829 17.379V18.7921C3.829 19.1172 4.09262 19.3808 4.41778 19.3808H19.6477C19.9729 19.3808 20.2365 19.1172 20.2365 18.7921V17.379Z" fill="url(#paint0_linear)"/>
<defs>
<linearGradient id="paint0_linear" x1="12" y1="5.25" x2="12" y2="19.3808" gradientUnits="userSpaceOnUse">
<stop stop-color="#55FFC2"/>
<stop offset="1" stop-color="#17D394"/>
</linearGradient>
</defs>
</svg>
