<svg width="172" height="12" viewBox="0 0 172 12" fill="none" xmlns="http://www.w3.org/2000/svg">
<g opacity="0.5">
<path d="M6.3225 6.1725C6.3225 7.245 5.76375 7.92375 4.87125 7.92375C3.97875 7.92375 3.42 7.245 3.42 6.1725C3.42 5.09625 3.97875 4.42125 4.87125 4.42125C5.76375 4.42125 6.3225 5.09625 6.3225 6.1725ZM12 3.3V8.7C12 9.1275 11.9963 9.8025 11.7638 10.4025C11.6475 10.6988 11.3775 11.115 10.995 11.4113C10.7738 11.58 10.5112 11.745 10.1512 11.85C9.765 11.9625 9.28875 12 8.7 12H3.3C2.71125 12 2.235 11.9625 1.84875 11.8463C1.48875 11.7375 1.22625 11.5762 1.005 11.4075C0.6225 11.115 0.3525 10.695 0.23625 10.3988C0.00375 9.8025 0 9.1275 0 8.7V3.3C0 2.8725 0.00375 2.1975 0.23625 1.5975C0.3525 1.30125 0.6225 0.885 1.005 0.58875C1.22625 0.42 1.48875 0.255 1.84875 0.15C2.235 0.0374999 2.71125 0 3.3 0H8.7C9.2925 0 9.765 0.0374999 10.1512 0.15375C10.5112 0.2625 10.7775 0.42375 10.995 0.5925C11.3775 0.885 11.6475 1.305 11.7638 1.60125C11.9963 2.1975 12 2.8725 12 3.3ZM2.36625 8.35125V5.74875H1.83V8.35125H2.36625ZM2.40375 5.025C2.40375 4.85625 2.26875 4.7175 2.09625 4.7175C1.9275 4.7175 1.78875 4.8525 1.78875 5.025C1.78875 5.19375 1.9275 5.3325 2.09625 5.3325C2.26875 5.32875 2.40375 5.19375 2.40375 5.025ZM6.88125 6.1725C6.88125 4.78875 6.10875 3.91875 4.87125 3.91875C3.63375 3.91875 2.86125 4.78875 2.86125 6.1725C2.86125 7.55625 3.63375 8.4225 4.87125 8.4225C6.10875 8.4225 6.88125 7.55625 6.88125 6.1725ZM10.3612 7.11375C10.3612 6.49875 10.0013 6.135 9.09375 5.93625L8.61 5.83125C8.01375 5.7 7.78125 5.46375 7.78125 5.1225C7.78125 4.67625 8.20125 4.41375 8.745 4.41375C9.315 4.41375 9.69 4.70625 9.73875 5.1825H10.2825C10.2563 4.44375 9.63 3.9225 8.76 3.9225C7.85625 3.9225 7.2225 4.42875 7.2225 5.145C7.2225 5.76375 7.60125 6.16125 8.475 6.34875L8.95875 6.45375C9.5625 6.585 9.80625 6.82875 9.80625 7.1925C9.80625 7.62375 9.375 7.93125 8.78625 7.93125C8.16 7.93125 7.725 7.64625 7.66125 7.1775H7.1175C7.17 7.93125 7.80375 8.41875 8.75625 8.41875C9.7275 8.4225 10.3612 7.92 10.3612 7.11375Z" fill="white"/>
<path d="M28.7496 4.50059H23.7499C23.6119 4.50059 23.4999 4.61259 23.4999 4.75058V8.75032C23.4999 9.35429 23.9299 9.85875 24.4998 9.97525V11.2502C24.4998 11.6636 24.8363 12.0001 25.2498 12.0001C25.6633 12.0001 25.9997 11.6636 25.9997 11.2502V10.0003H26.4997V11.2502C26.4997 11.6636 26.8362 12.0001 27.2497 12.0001C27.6631 12.0001 27.9996 11.6636 27.9996 11.2502V9.97525C28.5696 9.85926 28.9995 9.35429 28.9995 8.75032V4.75058C28.9995 4.6121 28.8876 4.50059 28.7496 4.50059Z" fill="white"/>
<path d="M27.5581 1.33223L27.9796 0.348787C28.0341 0.221787 27.9751 0.0753126 27.8481 0.0208006C27.7226 -0.0342035 27.5741 0.0248082 27.5201 0.1523L27.0986 1.13623C26.8312 1.04924 26.5462 1.00075 26.2502 1.00075C25.9542 1.00075 25.6692 1.04924 25.4017 1.13623L24.9793 0.1523C24.9253 0.0248082 24.7768 -0.0346957 24.6513 0.0208006C24.5243 0.0752892 24.4658 0.222279 24.5203 0.348787L24.9418 1.33223C24.0834 1.79821 23.4999 2.70764 23.4999 3.75056C23.4999 3.88855 23.6119 4.00055 23.7499 4.00055H28.7496C28.8876 4.00055 28.9996 3.88855 28.9996 3.75056C28.9995 2.70764 28.4161 1.79821 27.5581 1.33223ZM25.2498 3.00061C25.1118 3.00061 24.9998 2.88861 24.9998 2.75062C24.9998 2.61263 25.1118 2.50063 25.2498 2.50063C25.3878 2.50063 25.4998 2.61263 25.4998 2.75062C25.4998 2.88861 25.3878 3.00061 25.2498 3.00061ZM27.2497 3.00061C27.1117 3.00061 26.9997 2.88861 26.9997 2.75062C26.9997 2.61263 27.1117 2.50063 27.2497 2.50063C27.3877 2.50063 27.4997 2.61263 27.4997 2.75062C27.4997 2.88861 27.3877 3.00061 27.2497 3.00061Z" fill="white"/>
<path d="M30.2495 4.50059C29.836 4.50059 29.4995 4.83706 29.4995 5.25054V7.75038C29.4995 8.16386 29.836 8.50033 30.2495 8.50033C30.663 8.50033 30.9994 8.16386 30.9994 7.75038V5.25054C30.9994 4.83708 30.663 4.50059 30.2495 4.50059Z" fill="white"/>
<path d="M22.25 4.50059C21.8365 4.50059 21.5 4.83706 21.5 5.25054V7.75038C21.5 8.16386 21.8365 8.50033 22.25 8.50033C22.6634 8.50033 22.9999 8.16386 22.9999 7.75038V5.25054C22.9999 4.83708 22.6634 4.50059 22.25 4.50059Z" fill="white"/>
<path fill-rule="evenodd" clip-rule="evenodd" d="M52 6C52 9.31371 49.3137 12 46 12C42.6863 12 40 9.31371 40 6C40 2.68629 42.6863 0 46 0C49.3137 0 52 2.68629 52 6ZM46.5075 4.15148H46.6808V4.28862C46.6808 4.361 46.6594 4.42005 46.6165 4.46576C46.5755 4.50957 46.5177 4.53148 46.4431 4.53148C46.3052 4.53148 46.2362 4.47052 46.2362 4.34862C46.2362 4.29148 46.2595 4.24481 46.3061 4.20862C46.3527 4.17053 46.4198 4.15148 46.5075 4.15148ZM45.993 3.40005V3.71719C46.1197 3.63148 46.2586 3.58862 46.4096 3.58862C46.5084 3.58862 46.5783 3.60957 46.6193 3.65148C46.6603 3.69338 46.6808 3.75433 46.6808 3.83433V3.92291H46.4739C46.2838 3.92291 46.1384 3.96195 46.0377 4.04005C45.937 4.11814 45.8867 4.22576 45.8867 4.36291C45.8867 4.48481 45.9258 4.58576 46.0041 4.66576C46.0843 4.74576 46.1915 4.78576 46.3257 4.78576C46.5065 4.78576 46.6296 4.72386 46.6948 4.60005V4.77433H47.0276V3.84862C47.0276 3.48291 46.8356 3.30005 46.4515 3.30005C46.2521 3.30005 46.0992 3.33338 45.993 3.40005ZM43.9356 3.55433V3.32576H43.6V4.77433H43.9356V3.99719C43.9356 3.85814 43.9645 3.75624 44.0223 3.69148C44.0801 3.62672 44.1453 3.59433 44.218 3.59433C44.3634 3.59433 44.4361 3.69148 44.4361 3.88576V4.77433H44.7744V3.99719C44.7744 3.85814 44.8024 3.75624 44.8583 3.69148C44.9161 3.62672 44.9814 3.59433 45.0541 3.59433C45.1995 3.59433 45.2722 3.69148 45.2722 3.88576V4.77433H45.6105V3.82005C45.6105 3.65624 45.5714 3.53052 45.4931 3.44291C45.4148 3.35338 45.3039 3.30862 45.1603 3.30862C45.0653 3.30862 44.9804 3.33243 44.9059 3.38005C44.8313 3.42767 44.7754 3.49529 44.7381 3.58291C44.6766 3.40005 44.5424 3.30862 44.3354 3.30862C44.149 3.30862 44.0157 3.39053 43.9356 3.55433ZM47.6423 4.05433C47.646 4.19148 47.6861 4.30195 47.7625 4.38576C47.8408 4.46957 47.9461 4.51148 48.0785 4.51148C48.194 4.51148 48.3012 4.4791 48.4 4.41433V4.71148C48.3012 4.77052 48.1782 4.80005 48.0309 4.80005C47.8128 4.80005 47.6357 4.72957 47.4997 4.58862C47.3654 4.44767 47.2983 4.26957 47.2983 4.05433C47.3002 3.84291 47.3673 3.66481 47.4997 3.52005C47.6339 3.37529 47.8166 3.30291 48.0477 3.30291C48.1857 3.30291 48.3031 3.32957 48.4 3.38291V3.68576C48.3068 3.62481 48.2006 3.59433 48.0813 3.59433C47.9508 3.59433 47.8455 3.63624 47.7653 3.72005C47.6851 3.80386 47.6441 3.91529 47.6423 4.05433ZM43.9509 6.11061C43.717 6.38439 43.6 6.7475 43.6 7.19995C43.6 7.64952 43.7183 8.01119 43.9549 8.28497C44.1915 8.55874 44.507 8.69563 44.9014 8.69563C45.2957 8.69563 45.6098 8.55874 45.8437 8.28497C46.0803 8.01119 46.1986 7.64952 46.1986 7.19995C46.1986 6.74462 46.0816 6.38151 45.8478 6.11061C45.6139 5.83684 45.297 5.69995 44.8973 5.69995C44.5029 5.69995 44.1875 5.83684 43.9509 6.11061ZM44.3547 7.92618C44.2187 7.7475 44.1507 7.50543 44.1507 7.19995C44.1507 6.89159 44.2174 6.64808 44.3506 6.4694C44.4839 6.29073 44.6661 6.20139 44.8973 6.20139C45.1312 6.20139 45.3147 6.29073 45.448 6.4694C45.5812 6.64808 45.6479 6.89159 45.6479 7.19995C45.6479 7.50831 45.5812 7.75182 45.448 7.9305C45.3147 8.10629 45.1325 8.19419 44.9014 8.19419C44.6729 8.19419 44.4907 8.10485 44.3547 7.92618ZM48.2695 6.40024V5.87286C48.0818 5.77776 47.8588 5.73021 47.6005 5.73021C47.3149 5.73021 47.0851 5.80514 46.9111 5.95499C46.7397 6.10485 46.6541 6.3037 46.6541 6.55154C46.6541 6.66969 46.6717 6.77488 46.7071 6.8671C46.7452 6.95932 46.8009 7.03857 46.8744 7.10485C46.9478 7.17113 47.0158 7.22445 47.0783 7.26479C47.1409 7.30226 47.2225 7.34548 47.3231 7.39448C47.3367 7.40024 47.3571 7.41033 47.3843 7.42474C47.4822 7.47084 47.5461 7.50254 47.576 7.51984C47.6086 7.53713 47.6535 7.56595 47.7106 7.60629C47.7705 7.64664 47.8099 7.68698 47.8289 7.72733C47.848 7.76767 47.8575 7.81378 47.8575 7.86566C47.8575 7.97517 47.8194 8.06306 47.7433 8.12935C47.6671 8.19275 47.5665 8.22445 47.4414 8.22445C47.164 8.22445 46.9084 8.13511 46.6745 7.95644V8.51407C46.8784 8.63799 47.1354 8.69995 47.4455 8.69995C47.731 8.69995 47.9608 8.62358 48.1349 8.47084C48.3117 8.31522 48.4 8.10773 48.4 7.84837C48.4 7.72445 48.3796 7.61494 48.3388 7.51984C48.3008 7.42185 48.2409 7.33828 48.1594 7.26912C48.0805 7.19995 48.0071 7.14664 47.9391 7.10917C47.8711 7.06883 47.7827 7.02272 47.6739 6.97084C47.5189 6.89592 47.402 6.82819 47.3231 6.76767C47.2469 6.70427 47.2089 6.62502 47.2089 6.52992C47.2089 6.43482 47.2442 6.35701 47.3149 6.29649C47.3884 6.23597 47.489 6.20572 47.6168 6.20572C47.848 6.20572 48.0655 6.27056 48.2695 6.40024Z" fill="white"/>
<path d="M60 10.3487L64.9183 11.0265V6.33183H60V10.3487Z" fill="white"/>
<path d="M60 5.72591H64.9183V0.973518L60 1.65136V5.72591Z" fill="white"/>
<path d="M65.4592 11.0986L72 12V6.33177V6.3317H65.4592V11.0986Z" fill="white"/>
<path d="M65.4592 0.901436V5.72597H72V0L65.4592 0.901436Z" fill="white"/>
<path fill-rule="evenodd" clip-rule="evenodd" d="M90.7481 9.83138L90.7481 9.83138C90.5521 9.75228 90.3874 9.65087 90.2748 9.50967C90.1574 9.36254 90.1112 9.19085 90.1207 9.00409C90.1318 8.75756 89.988 8.56807 89.9107 8.48623L89.8296 8.40047L89.8599 8.28643C89.9137 8.0839 90.0579 7.42196 89.8647 6.86425C89.7575 6.55619 89.5343 6.15295 89.2388 5.69284C88.9453 5.23582 88.589 4.73569 88.2245 4.23632L88.2244 4.23619L88.2243 4.23606C87.8869 3.77236 87.871 3.26777 87.8554 2.76858C87.8551 2.76045 87.8548 2.75232 87.8546 2.74419C87.8389 2.25109 87.8209 1.73038 87.5608 1.1511L87.5607 1.151C87.2925 0.552884 86.7609 0.211765 86.0838 0.211765C85.6732 0.211765 85.2522 0.339044 84.9328 0.556149C84.6375 0.757016 84.4963 1.08299 84.4414 1.47475C84.3862 1.86867 84.4232 2.29383 84.4555 2.65563C84.4641 2.75282 84.4727 2.84861 84.4777 2.93126C84.4992 3.28722 84.5005 3.56335 84.4893 3.7678C84.4786 3.96118 84.4559 4.11746 84.4129 4.21328C84.3851 4.27551 84.3205 4.36617 84.2596 4.44869C84.1931 4.53896 84.1098 4.64711 84.0259 4.75592L84.0233 4.75935C83.8463 4.98905 83.6508 5.24286 83.4914 5.47798C83.3144 5.74147 83.1657 6.15587 83.0099 6.59483C83.0098 6.59483 83.0099 6.59483 83.0099 6.59483L83.0032 6.61361C82.8969 6.91302 82.7867 7.22356 82.6744 7.41806C82.5183 7.6925 82.5572 7.94681 82.5892 8.0634L82.6292 8.20896L82.5046 8.29423C82.461 8.32412 82.3796 8.3949 82.3063 8.5475C82.1516 8.87242 81.8396 9.01232 81.3693 9.10157C81.1929 9.13736 81.1141 9.20176 81.08 9.2599C81.0537 9.30479 81.0427 9.36365 81.0487 9.43989C81.0548 9.51671 81.0769 9.59678 81.1024 9.67196C81.2066 9.97802 81.1354 10.1898 81.0473 10.4519C81.0453 10.4578 81.0433 10.4636 81.0413 10.4695L81.0405 10.472C81.0195 10.5346 80.9966 10.6028 80.9735 10.6778C80.9518 10.7483 80.9619 10.7944 80.9886 10.8345C81.0319 10.8998 81.1388 10.97 81.3408 11.03C81.5348 11.0875 81.7754 11.124 82.0335 11.154L82.0336 11.154C82.3683 11.1932 82.7269 11.3224 83.0459 11.4373L83.0587 11.4419C83.3866 11.56 83.6951 11.67 83.9689 11.7029L83.9693 11.7029L83.9697 11.703C84.0074 11.7077 84.0442 11.7099 84.0789 11.7099C84.4228 11.7099 84.572 11.4914 84.6202 11.4009L84.6673 11.3127L84.7653 11.293C84.9333 11.2592 85.5127 11.1508 86.1138 11.1361C86.7217 11.1191 87.3047 11.2367 87.4697 11.2731L87.5652 11.2942L87.6111 11.3807C87.6569 11.4672 87.7642 11.6344 87.916 11.7146L87.9167 11.715L87.9175 11.7154C87.9956 11.7574 88.1203 11.7882 88.2592 11.7882H88.2592C88.4088 11.7882 88.6754 11.7527 88.8836 11.5371C89.0377 11.3762 89.2916 11.2064 89.5505 11.0514C89.814 10.8936 90.1041 10.7388 90.3445 10.6105L90.3462 10.6096C90.3462 10.6096 90.3462 10.6096 90.3462 10.6096C90.4543 10.5519 90.5539 10.4988 90.641 10.4509L90.6412 10.4508L90.6414 10.4507C90.8739 10.3236 90.9442 10.1753 90.9378 10.068C90.9323 9.97575 90.8692 9.88027 90.7481 9.83138ZM91.1492 10.0554C91.1624 10.2764 91.0143 10.4883 90.7429 10.6365C90.6545 10.6851 90.5537 10.7389 90.4459 10.7965C89.9628 11.0542 89.3012 11.4072 89.0364 11.6837C88.7709 11.9589 88.4355 12 88.2592 12H88.2592C88.0941 12 87.9329 11.9642 87.8171 11.9018C87.6063 11.7905 87.4742 11.5745 87.424 11.4799C87.2645 11.4447 86.7014 11.3315 86.1195 11.3478C85.5366 11.362 84.9711 11.4676 84.8071 11.5006C84.7417 11.6232 84.5354 11.9217 84.0789 11.9217C84.035 11.9217 83.9895 11.9188 83.9436 11.9131C83.6414 11.8768 83.3089 11.7571 82.9874 11.6413L82.9869 11.6411C82.6586 11.5229 82.3192 11.4006 82.009 11.3644C81.4896 11.3039 80.985 11.212 80.8121 10.9515C80.7467 10.8529 80.7328 10.7398 80.7711 10.6155C80.795 10.538 80.8186 10.4677 80.8395 10.4054L80.8406 10.4021C80.9324 10.1287 80.9829 9.97805 80.9019 9.74009C80.847 9.57823 80.7869 9.34137 80.8973 9.15287C80.9732 9.02335 81.1182 8.93616 81.3286 8.89375C81.7865 8.807 82.0067 8.68436 82.1152 8.45616C82.205 8.26912 82.3114 8.16989 82.385 8.11949C82.3446 7.97238 82.2962 7.65408 82.4907 7.31273C82.5933 7.13529 82.6987 6.83837 82.8103 6.52402L82.8103 6.52399L82.8103 6.52391C82.9628 6.09434 83.1205 5.65013 83.3159 5.35951C83.4794 5.11831 83.6788 4.85949 83.8548 4.63106L83.8571 4.62802C84.0269 4.40768 84.187 4.19991 84.2196 4.12677C84.2701 4.01448 84.3088 3.64503 84.2663 2.94407C84.2615 2.86503 84.2533 2.77245 84.2445 2.67444C84.1807 1.95872 84.0843 0.877107 84.8138 0.381012C85.17 0.138886 85.6329 0 86.0838 0C86.8419 0 87.4506 0.387898 87.754 1.06435C88.0329 1.68538 88.0506 2.24405 88.0662 2.73694L88.0663 2.73747C88.0826 3.25438 88.0967 3.70079 88.3956 4.11146C89.1256 5.11148 89.833 6.12881 90.0648 6.79492C90.2804 7.41723 90.1196 8.13369 90.0646 8.3408C90.1557 8.4372 90.3474 8.68117 90.3322 9.01426C90.3175 9.29963 90.4702 9.49088 90.8273 9.635C91.0148 9.71066 91.1382 9.87174 91.1492 10.0554Z" fill="white"/>
<path d="M88.0472 10.6801C88.1374 10.2795 88.2412 9.73458 88.2244 9.41333C88.2205 9.34035 88.2139 9.26091 88.2076 9.18411C88.1957 9.0405 88.1781 8.82706 88.1963 8.76375C88.1999 8.7621 88.2039 8.76068 88.2083 8.75946C88.2091 8.94312 88.2496 9.30946 88.5468 9.43721C88.6354 9.4753 88.7367 9.49458 88.8478 9.49458C89.1456 9.49458 89.476 9.35062 89.6113 9.21724C89.691 9.13871 89.7581 9.04263 89.805 8.96653C89.8153 8.99616 89.8216 9.03488 89.8183 9.08477C89.8006 9.35565 89.9342 9.71502 90.1884 9.84746L90.2254 9.86662C90.316 9.91344 90.5565 10.0379 90.5604 10.0969C90.5603 10.0969 90.5583 10.1039 90.5449 10.1161C90.4847 10.1704 90.2726 10.2771 90.0676 10.3803C89.7038 10.5633 89.2915 10.7708 89.1063 10.9627C88.8456 11.2331 88.5507 11.4147 88.3726 11.4147C88.3512 11.4147 88.3317 11.412 88.3143 11.4066C88.1209 11.3472 87.9617 11.0722 88.0472 10.6801ZM81.4551 9.65817C81.4354 9.56721 81.4198 9.4954 81.4365 9.42584C81.4487 9.3743 81.7069 9.31906 81.8171 9.29549C81.9722 9.26233 82.1325 9.22806 82.2374 9.16534C82.3791 9.08071 82.4559 8.92463 82.5236 8.78693C82.5727 8.68735 82.6233 8.58438 82.6835 8.55058C82.6869 8.54862 82.6921 8.54633 82.702 8.54633C82.8149 8.54633 83.0517 8.78016 83.1882 8.98943C83.2228 9.04219 83.2869 9.14791 83.3611 9.27031C83.583 9.63614 83.8868 10.1372 84.0454 10.3051C84.1884 10.4561 84.4198 10.7463 84.3629 10.9953C84.3212 11.1884 84.0993 11.3455 84.047 11.3802C84.028 11.3845 84.0045 11.3866 83.9768 11.3866C83.6731 11.3866 83.072 11.1376 82.749 11.0039L82.7013 10.9841C82.5209 10.9096 82.2265 10.8626 81.9418 10.8172C81.7152 10.7811 81.405 10.7316 81.3536 10.6869C81.3119 10.6408 81.3603 10.4911 81.4029 10.3589C81.4336 10.2639 81.4653 10.1657 81.4827 10.0629C81.5073 9.89892 81.4783 9.76543 81.4551 9.65817Z" fill="white"/>
<path d="M84.8197 9.58177C84.7859 9.34727 84.4798 9.11471 84.1253 8.84544C83.8355 8.62522 83.5069 8.37566 83.4164 8.1643C83.2294 7.72829 83.3768 6.96162 83.6339 6.56684C83.7609 6.36917 83.8647 6.0694 83.9651 5.77951C84.0734 5.46649 84.1855 5.14284 84.3108 5.00116C84.5093 4.77997 84.6927 4.34958 84.7252 4.01039C84.9111 4.18523 85.1994 4.4071 85.4657 4.4071C85.5067 4.4071 85.5465 4.40183 85.5846 4.39124C85.7668 4.33939 86.0348 4.18677 86.294 4.03923C86.5175 3.91199 86.793 3.75508 86.8967 3.7408C87.0745 3.99237 88.1076 6.24527 88.2131 6.96878C88.2967 7.54124 88.2084 8.01448 88.1641 8.19983C88.1284 8.19503 88.0858 8.19114 88.0411 8.19114C87.7534 8.19114 87.6772 8.34592 87.6573 8.43834C87.6063 8.67846 87.6009 9.44627 87.6004 9.61879C87.4963 9.74906 86.9701 10.3625 86.2147 10.4728C85.907 10.5169 85.6197 10.5392 85.3607 10.5392C85.1394 10.5392 84.9981 10.5224 84.9395 10.5136L84.5598 10.0856C84.7095 10.0127 84.8592 9.85907 84.8197 9.58177Z" fill="white"/>
<path d="M86.511 3.41723C86.6002 3.37151 86.6082 3.36411 86.612 3.34743C86.6019 3.32154 86.5187 3.25237 86.3589 3.19831C86.3082 3.18037 86.2361 3.15205 86.1527 3.11923L86.1516 3.11879C85.9711 3.04785 85.7248 2.951 85.6248 2.9336C85.6205 2.93282 85.6165 2.9325 85.6119 2.9325C85.5267 2.9325 85.3543 3.03795 85.1831 3.19485C85.0987 3.26988 84.934 3.39661 84.8675 3.44725C84.8823 3.50402 85.0135 3.64924 85.2174 3.78109C85.2463 3.79938 85.2735 3.81756 85.299 3.83467C85.4121 3.91041 85.4624 3.94149 85.5437 3.93071C85.6632 3.91528 86.103 3.65257 86.2919 3.53973L86.2929 3.53916L86.3397 3.51118C86.4099 3.46908 86.466 3.44032 86.511 3.41723Z" fill="white"/>
<path d="M85.2664 2.54008C85.2779 2.53434 85.2895 2.52895 85.3014 2.52391C85.3072 2.48315 85.3101 2.44499 85.3101 2.40663C85.3101 2.10226 85.1465 1.8451 84.9528 1.8451C84.788 1.8451 84.649 2.02408 84.6094 2.26581C84.6545 2.15565 84.7368 2.07794 84.8418 2.06071C84.8562 2.05854 84.8694 2.05756 84.8824 2.05756C85.0588 2.05756 85.217 2.2282 85.2585 2.46328C85.2626 2.48905 85.2653 2.51474 85.2664 2.54008Z" fill="white"/>
<path d="M86.8333 2.52686C86.8333 2.58934 86.8238 2.64954 86.806 2.70517C86.8725 2.60107 86.911 2.47005 86.911 2.33278C86.911 2.00279 86.6969 1.73431 86.4338 1.73431C86.1707 1.73431 85.9567 2.00279 85.9567 2.33278C85.9567 2.41386 85.9696 2.4933 85.9951 2.56943L86.0295 2.58238C86.0278 2.56389 86.0268 2.54535 86.0268 2.52686C86.0268 2.25546 86.2072 2.0347 86.4289 2.0347C86.6557 2.0347 86.8333 2.2509 86.8333 2.52686Z" fill="white"/>
<path fill-rule="evenodd" clip-rule="evenodd" d="M111.297 0.749992H100.703C100.315 0.749992 100 1.06546 100 1.45312V8.43749C100 8.82515 100.315 9.14062 100.703 9.14062H111.297C111.685 9.14062 112 8.82515 112 8.43749V1.45312C112 1.06546 111.685 0.749992 111.297 0.749992ZM107.952 4.62735L108.615 3.45588C108.653 3.39021 108.63 3.30678 108.567 3.26862C108.503 3.23046 108.42 3.25265 108.384 3.31832L107.711 4.50488C107.198 4.26615 106.621 4.13302 106 4.13302C105.379 4.13302 104.802 4.26615 104.289 4.50488L103.616 3.31832C103.579 3.25265 103.497 3.23046 103.433 3.26862C103.368 3.30678 103.346 3.39021 103.384 3.45588L104.047 4.62735C102.903 5.25924 102.128 6.43959 102 7.82138H110C109.872 6.43958 109.097 5.25923 107.952 4.62735ZM104.163 6.67654C103.978 6.67654 103.828 6.52301 103.828 6.33486C103.828 6.14583 103.979 5.99318 104.163 5.99318C104.349 5.99318 104.499 6.14672 104.499 6.33486C104.499 6.52301 104.349 6.67654 104.163 6.67654ZM107.836 6.67654C107.65 6.67654 107.501 6.52301 107.501 6.33486C107.501 6.14583 107.651 5.99318 107.836 5.99318C108.021 5.99318 108.171 6.14672 108.171 6.33486C108.172 6.52301 108.021 6.67654 107.836 6.67654ZM107.102 10.125H109.75C109.944 10.125 110.102 10.2825 110.102 10.4766C110.102 10.6706 109.944 10.8281 109.75 10.8281H102.25C102.056 10.8281 101.898 10.6706 101.898 10.4766C101.898 10.2825 102.056 10.125 102.25 10.125H104.898V9.475H107.102V10.125Z" fill="white"/>
<path fill-rule="evenodd" clip-rule="evenodd" d="M120 2C120 0.895431 120.895 0 122 0H130C131.105 0 132 0.895431 132 2V10C132 11.1046 131.105 12 130 12H122C120.895 12 120 11.1046 120 10V2ZM128.781 7.71486C128.009 8.28391 126.891 8.58674 125.928 8.58674C124.578 8.58674 123.363 8.08771 122.443 7.25741C122.371 7.19201 122.435 7.10315 122.522 7.15363C123.515 7.73121 124.742 8.07882 126.009 8.07882C126.864 8.07882 127.804 7.90146 128.669 7.53465C128.799 7.4792 128.908 7.62067 128.781 7.71486ZM128.201 7.31811C128.45 7.28824 129.003 7.22188 129.102 7.34836C129.2 7.47454 128.992 7.99525 128.899 8.22771C128.871 8.29808 128.931 8.32652 128.995 8.2732C129.409 7.92701 129.516 7.20157 129.431 7.09707C129.347 6.99293 128.623 6.90336 128.182 7.21365C128.114 7.26128 128.126 7.32703 128.201 7.31815L128.201 7.31811ZM125.955 4.8891C126.389 4.8891 126.385 5.26906 126.375 5.43291H125.457C125.473 5.14785 125.611 4.8891 125.955 4.8891ZM126.651 5.68527C126.706 5.68527 126.713 5.50293 126.716 5.42616C126.737 4.87346 126.445 4.60511 125.97 4.60511C125.709 4.60511 125.467 4.69965 125.316 4.88235C125.176 5.0494 125.095 5.28541 125.095 5.60352C125.095 5.9163 125.166 6.15089 125.302 6.31581C125.442 6.48251 125.655 6.59909 126.025 6.59909C126.165 6.59909 126.438 6.56924 126.608 6.48393C126.671 6.46083 126.672 6.4324 126.672 6.37304V6.27032C126.672 6.21487 126.648 6.19212 126.588 6.21167C126.391 6.27778 126.194 6.30408 126.075 6.30408C125.87 6.30408 125.69 6.24473 125.591 6.12743C125.494 6.00054 125.461 5.85766 125.453 5.68527H126.651ZM122.217 4.29623V4.66198H122.714C122.763 4.66198 122.787 4.68295 122.787 4.7352V4.87915C122.787 4.9314 122.766 4.95237 122.714 4.95237H122.217V6.46758C122.217 6.51983 122.196 6.5408 122.144 6.5408H121.92C121.868 6.5408 121.847 6.51983 121.847 6.46758V4.95237H121.573C121.522 4.95237 121.5 4.9314 121.5 4.87915V4.78282C121.5 4.7256 121.521 4.70783 121.578 4.70285L121.847 4.67157V4.36697C121.847 3.7837 122.246 3.69235 122.705 3.7773C122.787 3.79934 122.812 3.82066 122.812 3.88109V4.00193C122.812 4.06698 122.78 4.08084 122.697 4.06485C122.511 4.04103 122.217 4.00371 122.217 4.29623ZM123.398 4.66444H123.178C123.126 4.66444 123.105 4.68506 123.105 4.7373V6.46756C123.105 6.51981 123.126 6.54078 123.178 6.54078H123.398C123.451 6.54078 123.472 6.51981 123.472 6.46756V4.7373C123.472 4.69536 123.451 4.66444 123.398 4.66444ZM123.287 3.88248C123.158 3.88248 123.06 3.96957 123.06 4.10783C123.06 4.24787 123.15 4.33282 123.291 4.33282C123.432 4.33282 123.523 4.24609 123.523 4.10783C123.523 3.95499 123.426 3.88248 123.287 3.88248ZM129.483 6.54082H129.718C129.768 6.54082 129.79 6.50954 129.808 6.4676L130.49 4.74907C130.513 4.69682 130.498 4.66448 130.436 4.66448H130.211C130.158 4.66448 130.136 4.68509 130.113 4.73734L129.601 6.20173L129.086 4.73734C129.07 4.6954 129.049 4.66448 128.999 4.66448H128.748C128.693 4.66448 128.679 4.6986 128.7 4.75085L129.381 6.4676C129.402 6.51985 129.43 6.54082 129.483 6.54082ZM127.567 6.05953C127.567 6.49636 127.868 6.56851 128.086 6.56851C128.202 6.56851 128.297 6.55643 128.391 6.53652C128.505 6.50352 128.505 6.48404 128.505 6.4332V6.43132V6.29803C128.505 6.24578 128.48 6.22943 128.431 6.2408L128.411 6.24393C128.334 6.25653 128.278 6.26559 128.197 6.26888C127.955 6.25218 127.933 6.17469 127.933 5.93904V4.95235H128.419C128.471 4.95235 128.492 4.93138 128.492 4.87913V4.73305C128.492 4.68044 128.468 4.65983 128.419 4.65983H127.933V4.20878C127.933 4.1672 127.912 4.13556 127.859 4.13556H127.712C127.655 4.13556 127.627 4.15653 127.621 4.21376L127.575 4.66907L127.3 4.70284C127.243 4.70781 127.222 4.73625 127.222 4.79383V4.87913C127.222 4.93138 127.253 4.95235 127.295 4.95235H127.567V6.05953ZM124.278 4.72307L124.305 4.9342C124.526 4.70353 124.681 4.64488 124.913 4.64488C125.005 4.64488 125.034 4.67154 125.034 4.71952V4.9342C125.034 4.99343 124.971 4.98817 124.911 4.98312C124.896 4.9819 124.882 4.98069 124.868 4.98041C124.588 4.98041 124.464 5.05185 124.321 5.1567V6.46755C124.321 6.5198 124.3 6.54077 124.249 6.54077H124.03C123.977 6.54077 123.956 6.5198 123.956 6.46755V4.73729C123.956 4.68504 123.977 4.66443 124.03 4.66443L124.194 4.66407C124.237 4.66407 124.267 4.67118 124.278 4.72307Z" fill="white"/>
<path d="M146 7.99219C147.1 7.99219 147.992 7.10025 147.992 6C147.992 4.89975 147.1 4.00781 146 4.00781C144.9 4.00781 144.008 4.89975 144.008 6C144.008 7.10025 144.9 7.99219 146 7.99219Z" fill="white"/>
<path d="M143.367 5.42372C143.632 4.21352 144.712 3.30469 146 3.30469H151.364C151.079 2.73968 150.703 2.2177 150.243 1.75734C149.109 0.624117 147.603 0 146 0C144.397 0 142.891 0.624117 141.757 1.75734C141.648 1.86633 141.544 1.97883 141.445 2.09447L143.367 5.42372Z" fill="white"/>
<path d="M146.818 8.56847C146.56 8.65076 146.285 8.69534 146 8.69534C144.999 8.69534 144.123 8.14657 143.659 7.33404C143.655 7.32891 143.652 7.3238 143.649 7.31845L140.985 2.70377C140.344 3.67409 140 4.81057 140 6.00002C140 7.60268 140.624 9.10941 141.757 10.2427C142.626 11.1109 143.713 11.6798 144.895 11.8986L146.818 8.56847Z" fill="white"/>
<path d="M147.814 4.00781C148.355 4.50113 148.695 5.21156 148.695 6C148.695 6.49589 148.561 6.96082 148.326 7.36041C148.324 7.365 148.321 7.36966 148.319 7.37419L145.654 11.9899C145.769 11.9963 145.884 12 146 12C147.603 12 149.109 11.3759 150.243 10.2427C151.376 9.10938 152 7.60266 152 6C152 5.3108 151.884 4.63945 151.663 4.00781H147.814Z" fill="white"/>
<path d="M164.218 3.6434C164.222 3.6434 164.22 3.6434 164.218 3.6434V3.6434ZM162.817 2.9432C162.822 2.9432 162.819 2.9432 162.817 2.9432V2.9432ZM171.194 4.02398C170.942 3.41656 170.429 2.7618 170.028 2.55276C170.356 3.19351 170.545 3.8388 170.616 4.31785L170.618 4.32807C169.959 2.68871 168.845 2.02828 167.934 0.590003C167.888 0.517294 167.843 0.444206 167.797 0.367332C167.773 0.327947 167.754 0.288564 167.732 0.246529C167.695 0.173237 167.666 0.0958334 167.647 0.0159051C167.647 0.00833123 167.642 0.00227215 167.634 0.000378693H167.622L167.62 0.00227215C167.618 0.00227215 167.616 0.00416561 167.616 0.00416561C167.616 0.00416561 167.616 0.00227215 167.618 0C166.324 0.757384 165.789 2.0847 165.651 2.92691C165.252 2.95081 164.861 3.05055 164.5 3.22078C164.467 3.2371 164.441 3.265 164.427 3.29915C164.413 3.3333 164.413 3.37132 164.425 3.40596C164.432 3.42514 164.442 3.4427 164.456 3.45753C164.47 3.47237 164.487 3.48415 164.506 3.49213C164.524 3.50011 164.545 3.50411 164.565 3.50387C164.585 3.50364 164.605 3.49919 164.624 3.49079C164.939 3.34236 165.28 3.25413 165.628 3.23062L165.661 3.22646C165.709 3.22456 165.758 3.22229 165.805 3.22229C166.088 3.22047 166.369 3.25964 166.64 3.33855L166.687 3.35256C166.732 3.3662 166.776 3.38172 166.821 3.39801C166.853 3.40975 166.887 3.42186 166.918 3.4355C166.944 3.44496 166.969 3.45708 166.995 3.46693C167.035 3.48511 167.074 3.5048 167.113 3.52449L167.166 3.54986C167.206 3.56993 167.244 3.59114 167.281 3.6131C167.305 3.62711 167.328 3.64075 167.352 3.65665C167.773 3.9167 168.122 4.27812 168.368 4.7079C168.059 4.49129 167.502 4.2743 166.968 4.36897C169.058 5.41416 168.496 9.01363 165.599 8.8773C165.279 8.86527 164.964 8.79226 164.672 8.66221C164.639 8.64692 164.606 8.63127 164.573 8.61525C163.863 8.2483 163.277 7.55377 163.204 6.71156C163.204 6.71156 163.473 5.71182 165.125 5.71182C165.305 5.71182 165.816 5.21232 165.825 5.06842C165.821 5.02108 164.809 4.61891 164.415 4.23037C164.204 4.02323 164.106 3.92287 164.017 3.84751C163.969 3.80617 163.918 3.76809 163.865 3.73353C163.733 3.26995 163.727 2.77941 163.849 2.31305C163.251 2.58533 162.788 3.01553 162.451 3.39422H162.447C162.217 3.10225 162.234 2.13961 162.246 1.93853C162.244 1.92489 162.074 2.02525 162.053 2.04115C161.85 2.18695 161.658 2.34903 161.484 2.52853C161.285 2.73003 161.103 2.94777 160.94 3.1795C160.567 3.70867 160.302 4.30651 160.161 4.93853C160.123 5.11608 160.091 5.29509 160.067 5.47513C160.059 5.52029 160.053 5.56562 160.047 5.61108C160.031 5.72172 160.02 5.83305 160.014 5.94471L160.012 5.96251C160.008 6.02764 160.004 6.09089 160 6.15602V6.18518C160 9.39649 162.604 12 165.815 12C168.69 12 171.079 9.91113 171.546 7.1694C171.557 7.0948 171.564 7.01982 171.572 6.94484C171.688 5.9485 171.56 4.89952 171.195 4.02398H171.194Z" fill="white"/>
</g>
</svg>
