<svg width="14" height="14" viewBox="0 0 14 14" fill="none" xmlns="http://www.w3.org/2000/svg">
<path d="M12.0291 2.15186C11.9187 2.03789 11.7675 1.97321 11.6087 1.97183C11.6072 1.97183 11.6058 1.97183 11.6044 1.97183C11.4474 1.97183 11.2968 2.03414 11.1858 2.14535L11.1262 2.2049C10.8983 2.43324 10.8953 2.80217 11.1197 3.03425C12.1597 4.1091 12.7327 5.52468 12.7327 7.02011C12.7327 8.51575 12.1599 9.93132 11.1197 11.006C10.8947 11.2383 10.8981 11.6082 11.127 11.8363L11.1868 11.8959C11.2976 12.0065 11.4478 12.0684 11.6044 12.0684C11.6062 12.0684 11.6079 12.0684 11.6095 12.0684C11.7679 12.067 11.9189 12.0021 12.0291 11.8886C13.3 10.5767 14 8.8478 14 7.02011C14 5.19262 13.3 3.46372 12.0291 2.15186Z" fill="#FE7A01"/>
<path d="M1.26749 7.02011C1.26749 5.52487 1.84031 4.1093 2.88045 3.03425C3.10524 2.80217 3.10208 2.43265 2.87335 2.20431L2.81361 2.14476C2.70259 2.03395 2.55234 1.97183 2.39558 1.97183C2.394 1.97183 2.39223 1.97183 2.39065 1.97183C2.23211 1.97321 2.08087 2.03789 1.97065 2.15186C0.699803 3.46372 0 5.19262 0 7.02011C0 8.8478 0.699803 10.5767 1.97085 11.8884C2.08127 12.0023 2.23251 12.067 2.39104 12.0684C2.39262 12.0684 2.3942 12.0684 2.39577 12.0684C2.55254 12.0684 2.70318 12.0063 2.814 11.8951L2.87375 11.8353C3.10208 11.607 3.10524 11.2379 2.88065 11.0058C1.84031 9.93113 1.26749 8.51555 1.26749 7.02011Z" fill="#FE7A01"/>
<path d="M10.0782 4.42203C9.96755 4.30786 9.81591 4.24319 9.65698 4.242C9.6558 4.242 9.65442 4.242 9.65324 4.242C9.49569 4.242 9.34465 4.30491 9.23363 4.41671L9.20465 4.44589C8.97769 4.67443 8.97513 5.04257 9.19912 5.27426C9.65481 5.74493 9.90563 6.36507 9.90563 7.02012C9.90563 7.67536 9.65481 8.2955 9.19932 8.76598C8.97513 8.99767 8.97749 9.36581 9.20465 9.59434L9.23363 9.62353C9.34445 9.73533 9.49569 9.79823 9.65324 9.79823C9.65442 9.79823 9.6558 9.79823 9.65698 9.79823C9.81591 9.79724 9.96755 9.73237 10.0782 9.6184C10.7565 8.9182 11.1301 7.99558 11.1301 7.02012C11.1301 6.04485 10.7567 5.12223 10.0782 4.42203Z" fill="#FE7A01"/>
<path d="M4.79391 4.44469L4.76473 4.41551C4.65391 4.3045 4.50326 4.24219 4.3465 4.24219C4.34492 4.24219 4.34335 4.24219 4.34177 4.24219C4.18323 4.24337 4.03199 4.30824 3.92157 4.42222C3.24346 5.12222 2.87 6.04484 2.87 7.0203C2.87 7.99577 3.24346 8.91858 3.92177 9.61858C4.03199 9.73236 4.18343 9.79703 4.34197 9.79841C4.34354 9.79841 4.34512 9.79841 4.3465 9.79841C4.50326 9.79841 4.65391 9.7363 4.76473 9.62509L4.79391 9.59591C5.02225 9.36757 5.0252 8.99844 4.80081 8.76616C4.34532 8.29548 4.0943 7.67574 4.0943 7.0203C4.0943 6.36526 4.34512 5.74512 4.80081 5.27444C5.0254 5.04216 5.02244 4.67284 4.79391 4.44469Z" fill="#FE7A01"/>
<path d="M6.99995 8.27973C7.70781 8.27973 8.28164 7.7059 8.28164 6.99804C8.28164 6.29019 7.70781 5.71635 6.99995 5.71635C6.29209 5.71635 5.71826 6.29019 5.71826 6.99804C5.71826 7.7059 6.29209 8.27973 6.99995 8.27973Z" fill="#FE7A01"/>
</svg>
