<svg width="14" height="14" viewBox="0 0 14 14" fill="none" xmlns="http://www.w3.org/2000/svg">
<path d="M7 1.76842C3.13895 1.76842 0 4.90736 0 8.76842C0 9.90315 0.28 11.0232 0.795789 12.0253C0.898947 12.2316 1.10526 12.3495 1.32632 12.3495C1.41474 12.3495 1.51789 12.3347 1.60632 12.2758C1.90105 12.1284 2.00421 11.76 1.85684 11.4653C1.42947 10.64 1.19368 9.69684 1.19368 8.76842C1.19368 5.57052 3.8021 2.9621 7 2.9621C10.1979 2.9621 12.8063 5.57052 12.8063 8.76842C12.8063 9.71158 12.5705 10.6547 12.1432 11.4653C11.9958 11.76 12.0989 12.1137 12.3937 12.2758C12.6884 12.4232 13.0421 12.32 13.2042 12.0253C13.7347 11.0379 14 9.90315 14 8.76842C14 4.90736 10.8611 1.76842 7 1.76842Z" fill="#FE7A01"/>
<path d="M9.84427 5.27579L6.23374 7.51579C5.79163 7.79579 5.52637 8.2821 5.52637 8.79789C5.5411 9.62315 6.20426 10.2863 7.02953 10.2716C7.54532 10.2716 8.03163 9.99158 8.2969 9.53473L10.4632 5.88C10.7137 5.48211 10.2569 5.02526 9.84427 5.27579Z" fill="#FE7A01"/>
<path d="M7.00002 4.99579C7.34999 4.99579 7.6337 4.71208 7.6337 4.36211C7.6337 4.01213 7.34999 3.72842 7.00002 3.72842C6.65004 3.72842 6.36633 4.01213 6.36633 4.36211C6.36633 4.71208 6.65004 4.99579 7.00002 4.99579Z" fill="#FE7A01"/>
<path d="M4.34094 6.09537C4.58841 5.8479 4.58841 5.44668 4.34094 5.19922C4.09347 4.95175 3.69225 4.95175 3.44478 5.19921C3.19732 5.44668 3.19732 5.8479 3.44478 6.09537C3.69225 6.34284 4.09347 6.34284 4.34094 6.09537Z" fill="#FE7A01"/>
<path d="M2.60842 9.38736C2.95839 9.38736 3.2421 9.10365 3.2421 8.75368C3.2421 8.4037 2.95839 8.12 2.60842 8.12C2.25844 8.12 1.97473 8.4037 1.97473 8.75368C1.97473 9.10365 2.25844 9.38736 2.60842 9.38736Z" fill="#FE7A01"/>
<path d="M11.4064 9.40208C11.7564 9.40208 12.0401 9.11837 12.0401 8.7684C12.0401 8.41843 11.7564 8.13472 11.4064 8.13472C11.0564 8.13472 10.7727 8.41843 10.7727 8.7684C10.7727 9.11837 11.0564 9.40208 11.4064 9.40208Z" fill="#FE7A01"/>
</svg>
