<svg width="14" height="15" viewBox="0 0 14 15" fill="none" xmlns="http://www.w3.org/2000/svg">
<path d="M11.9108 5.04948L12.1316 4.652C12.8235 3.45958 12.6174 1.94328 11.6458 0.956947C11.0717 0.382814 10.3062 0.0589447 9.4818 0.0589447C8.6574 0.0589447 7.90661 0.397536 7.33248 0.971668C6.935 1.36914 6.67002 1.86967 6.53753 2.38492C3.53437 2.63518 1.17896 5.15253 1.17896 8.21457C1.17896 11.4385 3.79935 14.0589 7.00861 14.0589C10.2179 14.0589 12.8383 11.4385 12.8383 8.21457C12.8383 7.05158 12.4997 5.9622 11.9108 5.04948ZM8.06855 1.70774C8.4513 1.32498 8.95183 1.11888 9.49652 1.11888C10.0412 1.11888 10.5417 1.32498 10.9245 1.70774C11.5722 2.35547 11.7047 3.35653 11.2484 4.15148L9.49652 7.16935L7.74468 4.13676C7.28831 3.35653 7.42081 2.35547 8.06855 1.70774ZM6.47864 3.62151C6.53753 3.97482 6.6553 4.32814 6.84667 4.66673L7.49441 5.78555H5.3451C5.61008 4.74033 6.037 3.97482 6.47864 3.62151ZM2.20945 8.21457C2.20945 7.72877 2.28306 7.25768 2.41555 6.81604H4.09378C4.0349 7.25768 4.02018 7.72877 4.02018 8.21457C4.02018 8.70037 4.04962 9.17146 4.09378 9.6131H2.41555C2.28306 9.17146 2.20945 8.70037 2.20945 8.21457ZM2.87191 10.6436H4.25572C4.41765 11.3797 4.65319 12.0274 4.96234 12.5574C4.09378 12.1452 3.35771 11.4827 2.87191 10.6436ZM4.27044 5.77083H2.88663C3.37244 4.94643 4.1085 4.26925 4.97706 3.85705C4.66791 4.38702 4.43237 5.03476 4.27044 5.77083ZM7.00861 13.0285C6.39031 13.0285 5.71313 12.101 5.3451 10.6583H8.68684C8.30409 12.0863 7.6269 13.0285 7.00861 13.0285ZM5.139 9.6131C5.08011 9.17146 5.05067 8.70037 5.05067 8.21457C5.05067 7.72877 5.08011 7.25768 5.139 6.81604H8.08327L8.96655 8.34706C8.96655 8.7887 8.93711 9.21562 8.87822 9.6131H5.139ZM9.05488 12.5574C9.3493 12.0274 9.58484 11.3797 9.7615 10.6436H11.1453C10.6595 11.4827 9.92344 12.1452 9.05488 12.5574ZM9.92344 9.6131C9.9676 9.21562 9.99704 8.7887 9.99704 8.36178L10.8803 6.81604H11.5869C11.7194 7.25768 11.793 7.72877 11.793 8.21457C11.793 8.70037 11.7194 9.17146 11.5869 9.6131H9.92344Z" fill="#FE7A01"/>
<ellipse cx="9.50833" cy="3.26666" rx="0.758333" ry="0.758333" fill="#FE7A01"/>
</svg>
