<svg width="32" height="28" viewBox="0 0 32 28" fill="none" xmlns="http://www.w3.org/2000/svg">
<path fill-rule="evenodd" clip-rule="evenodd" d="M14.1799 26.566H17.8184V22.9218H14.1799V26.566ZM4.4141 16.5139V13.6768C4.4141 12.7413 5.17416 11.9802 6.10829 11.9802H25.8897C26.8239 11.9802 27.5839 12.7413 27.5839 13.6768V16.5139C27.5839 17.4496 26.8238 18.2108 25.8897 18.2108H6.10829C5.17411 18.2108 4.4141 17.4496 4.4141 16.5139ZM8.10477 2.03257C8.2608 1.5685 8.71284 1.25667 9.22959 1.25667H22.7749C23.2916 1.25667 23.7439 1.56851 23.8999 2.03257L26.8803 10.895C26.5705 10.784 26.2372 10.7231 25.8897 10.7231H6.10829C5.76342 10.7231 5.43285 10.7831 5.12502 10.8925L8.10477 2.03257ZM31.3719 24.1157H19.0735V22.2936C19.0735 21.9465 18.7924 21.6652 18.446 21.6652H16.6268V19.4676H25.8904C27.5165 19.4676 28.8395 18.1426 28.8395 16.5138V13.6768C28.8395 13.3801 28.7951 13.0935 28.7134 12.823C28.758 12.6955 28.7627 12.5529 28.7163 12.4147L25.0899 1.63174C24.7618 0.655837 23.8316 0 22.7756 0H9.23026C8.17425 0 7.24429 0.655837 6.91617 1.63174L3.28956 12.4147C3.24447 12.5489 3.24781 12.6875 3.28911 12.8123C3.20518 13.0859 3.15987 13.3761 3.15987 13.6768V16.5139C3.15987 18.1427 4.48286 19.4677 6.10899 19.4677H15.3725V21.6652H13.5533C13.2069 21.6652 12.9259 21.9465 12.9259 22.2936V24.1157H0.627437C0.281004 24.1157 0 24.397 0 24.7441C0 25.0912 0.281032 25.3727 0.627437 25.3727H12.9259V27.1946C12.9259 27.5417 13.2069 27.8231 13.5533 27.8231H18.4467C18.7931 27.8231 19.0741 27.5417 19.0741 27.1946V25.3727H31.3726C31.719 25.3727 32 25.0912 32 24.7441C32 24.397 31.719 24.1157 31.3726 24.1157L31.3719 24.1157ZM7.63277 15.6127C7.91759 15.6127 8.14929 15.3808 8.14929 15.0955C8.14929 14.81 7.91759 14.5781 7.63277 14.5781C7.34816 14.5781 7.11646 14.81 7.11646 15.0955C7.11646 15.3808 7.34816 15.6127 7.63277 15.6127ZM7.63277 13.3212C8.60958 13.3212 9.40422 14.1172 9.40422 15.0955C9.40422 16.0737 8.60958 16.8697 7.63277 16.8697C6.65618 16.8697 5.86154 16.0737 5.86154 15.0955C5.86154 14.1172 6.65618 13.3212 7.63277 13.3212ZM20.0381 15.0955C20.0381 14.7484 19.757 14.467 19.4106 14.467H12.5883C12.2418 14.467 11.9608 14.7484 11.9608 15.0955C11.9608 15.4424 12.2419 15.7239 12.5883 15.7239H19.4106C19.7571 15.7239 20.0381 15.4424 20.0381 15.0955Z" fill="white"/>
</svg>
