<svg width="120" height="121" viewBox="0 0 120 121" fill="none" xmlns="http://www.w3.org/2000/svg">
<g id="check-3 2" clip-path="url(#clip0_4975_21617)">
<g id="Group">
<g id="Group_2">
<path id="Vector" d="M60.0002 120.617C93.1266 120.617 119.981 93.754 119.981 60.6168C119.981 27.4797 93.1266 0.616699 60.0002 0.616699C26.8738 0.616699 0.0195312 27.4797 0.0195312 60.6168C0.0195312 93.754 26.8738 120.617 60.0002 120.617Z" fill="#20DF9E"/>
</g>
<path id="Vector_2" d="M26.0888 61.8089L50.3492 86.0693C51.4073 87.1274 53.123 87.1274 54.181 86.0693L94.0098 46.2406C95.0679 45.1825 95.0679 43.4668 94.0098 42.4088L86.7603 35.1593C85.7022 34.1012 83.9866 34.1012 82.9285 35.1593L53.9593 64.128C52.9013 65.1861 51.1856 65.1861 50.1275 64.128L37.1455 51.1459C36.1083 50.1087 34.4338 50.0853 33.368 51.0929L26.1432 57.9239C25.0342 58.9726 25.0096 60.7297 26.0888 61.8089Z" fill="#F2F2F2"/>
</g>
</g>
<defs>
<clipPath id="clip0_4975_21617">
<rect width="120" height="120" fill="white" transform="translate(0 0.616699)"/>
</clipPath>
</defs>
</svg>
