<svg width="16" height="17" viewBox="0 0 16 17" fill="none" xmlns="http://www.w3.org/2000/svg">
<g clip-path="url(#clip0_4933_19287)">
<path fill-rule="evenodd" clip-rule="evenodd" d="M13.1035 5.54493L8.3145 9.92838L8.10761 10.1187C7.57762 10.6015 6.76725 10.6015 6.23726 10.1187L6.03037 9.92838L0.253815 4.64286C0.407662 4.49393 0.613485 4.41081 0.827608 4.41113H10.6097L13.1035 5.54493Z" fill="#F3D55B"/>
<path fill-rule="evenodd" clip-rule="evenodd" d="M6.03035 9.9281L0.253801 15.2136C0.0908208 15.0584 -0.000984062 14.8428 7.95699e-06 14.6178V5.23844C-0.000984062 5.01336 0.0908208 4.79782 0.253801 4.64258L6.03035 9.9281Z" fill="#F0C419"/>
<path fill-rule="evenodd" clip-rule="evenodd" d="M14.0911 15.2137C13.9372 15.3627 13.7314 15.4458 13.5173 15.4455H0.827608C0.613485 15.4458 0.407662 15.3627 0.253815 15.2137L6.03037 9.92822L6.23726 10.1186C6.76725 10.6014 7.57762 10.6014 8.10761 10.1186L8.3145 9.92822L14.0911 15.2137Z" fill="#F29C1F"/>
<path fill-rule="evenodd" clip-rule="evenodd" d="M14.3448 6.11044V14.618C14.3458 14.8431 14.254 15.0586 14.091 15.2139L8.31448 9.92837L13.1034 5.54492L14.3448 6.11044Z" fill="#F0C419"/>
<path fill-rule="evenodd" clip-rule="evenodd" d="M2.91312 4.41075H1.10345L1.10346 3.58317C1.10247 3.35809 1.19428 3.14254 1.35726 2.9873L2.91312 4.41075Z" fill="#F29C1F"/>
<path fill-rule="evenodd" clip-rule="evenodd" d="M11.0345 4.41103H2.9131L1.35724 2.98758C1.51109 2.83866 1.71691 2.75553 1.93103 2.75586H10.6097L11.0345 4.41103Z" fill="#F0C419"/>
<path fill-rule="evenodd" clip-rule="evenodd" d="M4.01657 2.75597H2.20691L2.20692 1.92838C2.20593 1.7033 2.29773 1.48776 2.46071 1.33252L4.01657 2.75597Z" fill="#F29C1F"/>
<path fill-rule="evenodd" clip-rule="evenodd" d="M11.8621 2.75576H4.01656L2.46069 1.33231C2.61454 1.18338 2.82036 1.10026 3.03449 1.10059H11.3103C11.4779 1.10074 11.6414 1.15172 11.7793 1.24679L11.8621 2.75576Z" fill="#F3D55B"/>
<path d="M13.2414 6.34195C14.7649 6.34195 16 5.10687 16 3.58333C16 2.05978 14.7649 0.824707 13.2414 0.824707C11.7178 0.824707 10.4828 2.05978 10.4828 3.58333C10.4828 5.10687 11.7178 6.34195 13.2414 6.34195Z" fill="#E64C3C"/>
<path fill-rule="evenodd" clip-rule="evenodd" d="M13.2414 5.51436C13.089 5.51436 12.9655 5.39085 12.9655 5.2385V2.59409L12.8847 2.67491C12.7764 2.77946 12.6044 2.77796 12.498 2.67155C12.3916 2.56514 12.3901 2.39309 12.4946 2.28484L13.0463 1.73312C13.1252 1.65425 13.2439 1.63066 13.3469 1.67335C13.45 1.71604 13.5172 1.8166 13.5172 1.92815V5.2385C13.5172 5.39085 13.3937 5.51436 13.2414 5.51436Z" fill="#ECF0F1"/>
<path fill-rule="evenodd" clip-rule="evenodd" d="M3.86207 5.79001H3.31035C3.15799 5.79001 3.03448 5.6665 3.03448 5.51414C3.03448 5.36179 3.15799 5.23828 3.31035 5.23828H3.86207C4.01443 5.23828 4.13793 5.36179 4.13793 5.51414C4.13793 5.6665 4.01443 5.79001 3.86207 5.79001Z" fill="#F9EAB0"/>
<path fill-rule="evenodd" clip-rule="evenodd" d="M9.37932 5.79001H4.96553C4.81317 5.79001 4.68967 5.6665 4.68967 5.51414C4.68967 5.36179 4.81317 5.23828 4.96553 5.23828H9.37932C9.53168 5.23828 9.65518 5.36179 9.65518 5.51414C9.65518 5.6665 9.53168 5.79001 9.37932 5.79001Z" fill="#F9EAB0"/>
</g>
<defs>
<clipPath id="clip0_4933_19287">
<rect width="16" height="16" fill="white" transform="translate(0 0.135254)"/>
</clipPath>
</defs>
</svg>
