<svg width="19" height="24" viewBox="0 0 19 24" fill="none" xmlns="http://www.w3.org/2000/svg">
<path d="M9.05 0.0499415L0.516668 3.24994C0.214655 3.36434 -0.000723506 3.67698 1.8265e-06 3.99994V14.1333C1.8265e-06 16.3384 1.32094 18.1419 3.03333 19.6749C4.74572 21.2079 6.90668 22.5349 8.89166 23.8583C9.16526 24.0473 9.51491 24.0473 9.775 23.8583C11.76 22.5349 13.9209 21.2079 15.6333 19.6749C17.3457 18.1419 18.6667 16.3384 18.6667 14.1333V3.99994C18.6675 3.67698 18.452 3.36434 18.15 3.24994L9.61666 0.0499415C9.41482 -0.0262985 9.23047 -0.00624516 9.05 0.0499415ZM9.33333 1.64994L17.0667 4.54994V14.1333C17.0667 15.6969 16.1209 17.0918 14.5667 18.4833C13.1261 19.7729 11.2103 20.9998 9.33333 22.2416C7.4564 20.9998 5.54056 19.7729 4.1 18.4833C2.54572 17.0918 1.6 15.6969 1.6 14.1333V4.54994L9.33333 1.64994ZM6.4 7.73327C6.20168 7.73967 6.00624 7.82706 5.85 7.98327C5.53749 8.29572 5.50264 8.75023 5.85 9.1166L8.2 11.4666L5.83333 13.8333C5.52773 14.1388 5.52083 14.6542 5.83333 14.9666C6.14581 15.2791 6.65416 15.2791 6.96667 14.9666L9.33333 12.5999L11.7 14.9666C12.0073 15.2739 12.5208 15.2791 12.8333 14.9666C13.1458 14.6542 13.1458 14.1457 12.8333 13.8333L10.4667 11.4666L12.8167 9.1166C13.1685 8.75948 13.1291 8.29572 12.8167 7.98327C12.5042 7.67082 12.035 7.63159 11.6833 7.98327L9.33333 10.3333L6.98333 7.98327C6.80123 7.80119 6.59835 7.72682 6.4 7.73327Z" fill="#E84E58"/>
</svg>
