<svg width="24" height="20" viewBox="0 0 24 20" fill="none" xmlns="http://www.w3.org/2000/svg">
<path d="M22.4348 6.07826H21.0261V0.782609C21.0261 0.575048 20.9436 0.375988 20.7969 0.229221C20.6501 0.082453 20.451 0 20.2435 0H0.782609C0.575048 0 0.375988 0.082453 0.229221 0.229221C0.0824532 0.375988 0 0.575048 0 0.782609V14.3739C0 14.5815 0.0824532 14.7805 0.229221 14.9273C0.375988 15.0741 0.575048 15.1565 0.782609 15.1565H7.64348V17.7913H5.84348V19.3565H15.1826V17.7913H13.3826V15.1826H15.7826V17.8435C15.7826 18.2586 15.9475 18.6567 16.2411 18.9503C16.5346 19.2438 16.9327 19.4087 17.3478 19.4087H22.4348C22.8499 19.4087 23.248 19.2438 23.5416 18.9503C23.8351 18.6567 24 18.2586 24 17.8435V7.64348C24 7.22836 23.8351 6.83024 23.5416 6.5367C23.248 6.24317 22.8499 6.07826 22.4348 6.07826ZM15.7826 7.64348V11.4522H1.56522V1.53913H19.4609V6.07826H17.3478C16.9327 6.07826 16.5346 6.24317 16.2411 6.5367C15.9475 6.83024 15.7826 7.22836 15.7826 7.64348ZM22.4348 17.4435H17.3478V7.70435H22.4348V17.4435Z" fill="white"/>
</svg>
