<svg width="24" height="24" viewBox="0 0 24 24" fill="none" xmlns="http://www.w3.org/2000/svg">
<path d="M11.9995 1.49982C9.81221 1.50241 7.7153 2.37244 6.16869 3.91905C4.62207 5.46566 3.75205 7.56258 3.74945 9.74982C3.74945 16.8089 11.2495 22.1409 11.5688 22.3643C11.6951 22.4525 11.8454 22.4998 11.9995 22.4998C12.1535 22.4998 12.3038 22.4525 12.4301 22.3643C12.7495 22.1409 20.2495 16.8089 20.2495 9.74982C20.2469 7.56258 19.3768 5.46567 17.8302 3.91905C16.2836 2.37244 14.1867 1.50241 11.9995 1.49982V1.49982ZM12 6.75009C12.5933 6.75009 13.1734 6.92604 13.6667 7.25568C14.1601 7.58532 14.5446 8.05386 14.7716 8.60204C14.9987 9.15022 15.0581 9.75342 14.9424 10.3354C14.8266 10.9173 14.5409 11.4519 14.1213 11.8714C13.7018 12.291 13.1672 12.5767 12.5853 12.6924C12.0033 12.8082 11.4001 12.7488 10.8519 12.5217C10.3038 12.2947 9.83524 11.9101 9.50559 11.4168C9.17595 10.9235 9 10.3434 9 9.75009C8.99999 9.35612 9.07758 8.96601 9.22834 8.60203C9.3791 8.23804 9.60008 7.90732 9.87865 7.62874C10.1572 7.35017 10.488 7.12919 10.8519 6.97843C11.2159 6.82767 11.606 6.75008 12 6.75009V6.75009Z" fill="white"/>
</svg>
