<svg width="22" height="24" viewBox="0 0 22 24" fill="none" xmlns="http://www.w3.org/2000/svg">
<path fill-rule="evenodd" clip-rule="evenodd" d="M15.9937 20.1124C15.9379 20.6118 15.5143 21 15 21H4C3.44772 21 3 20.5523 3 20V5C3 4.44772 3.44772 4 4 4H9.5H14.566C14.6876 4 14.8083 4.0222 14.922 4.06551L14.9675 4.08287C15.0854 4.05078 15.2059 4.02777 15.328 4.01421C15.6905 3.97396 16.0574 4.01811 16.4 4.1432L18.4 5.5V2.652C18.3991 1.94891 18.1195 1.27485 17.6223 0.777688C17.1251 0.280525 16.4511 0.000846847 15.748 0H3.45199C2.74889 0.000846847 2.07484 0.280525 1.57768 0.777688C1.08051 1.27485 0.800835 1.94891 0.799988 2.652V21.348C0.800835 22.0511 1.08051 22.7251 1.57768 23.2223C2.07484 23.7195 2.74889 23.9992 3.45199 24H15.748C16.4511 23.9992 17.1251 23.7195 17.6223 23.2223C18.057 22.7876 18.0196 20.0404 18.004 18.887C18.0017 18.7212 17.9999 18.5883 18 18.5L16.4 20.0056C16.2675 20.0533 16.1316 20.0889 15.9937 20.1124ZM7.4343 1.63431C7.28427 1.78434 7.19999 1.98783 7.19999 2.2C7.19999 2.41217 7.28427 2.61566 7.4343 2.76569C7.58433 2.91571 7.78782 3 7.99999 3H11.2C11.4122 3 11.6156 2.91571 11.7657 2.76569C11.9157 2.61566 12 2.41217 12 2.2C12 1.98783 11.9157 1.78434 11.7657 1.63431C11.6156 1.48429 11.4122 1.4 11.2 1.4H7.99999C7.78782 1.4 7.58433 1.48429 7.4343 1.63431Z" fill="white"/>
<path fill-rule="evenodd" clip-rule="evenodd" d="M16.0295 5.72474L20.8295 8.77994C20.9429 8.85216 21.0363 8.95181 21.1011 9.06969C21.1658 9.18757 21.1998 9.31986 21.1999 9.45434C21.1974 11.067 20.8148 12.6563 20.0829 14.0933C19.3511 15.5302 18.2907 16.7744 16.9879 17.7247L16.0703 18.3919C15.9336 18.4913 15.7689 18.5449 15.5999 18.5449C15.4309 18.5449 15.2662 18.4913 15.1295 18.3919L14.2119 17.7247C12.909 16.7744 11.8487 15.5302 11.1168 14.0933C10.385 12.6563 10.0023 11.067 9.99988 9.45434C9.99996 9.31986 10.0339 9.18757 10.0987 9.06969C10.1634 8.95181 10.2568 8.85216 10.3703 8.77994L15.1703 5.72474C15.2987 5.64302 15.4477 5.59961 15.5999 5.59961C15.7521 5.59961 15.9011 5.64302 16.0295 5.72474ZM19.2802 10.7806C19.5731 10.4877 19.5731 10.0128 19.2802 9.71993C18.9873 9.42703 18.5125 9.42702 18.2196 9.7199L15.2499 12.6895L14.0302 11.4699C13.7373 11.177 13.2624 11.177 12.9695 11.4699C12.6766 11.7628 12.6767 12.2377 12.9696 12.5306L14.7196 14.2804C15.0125 14.5733 15.4873 14.5733 15.7802 14.2804L19.2802 10.7806Z" fill="white"/>
</svg>
