<svg width="24" height="24" viewBox="0 0 24 24" fill="none" xmlns="http://www.w3.org/2000/svg">
<path d="M24 13.9453C24 12.1011 22.8379 10.56 21.2211 9.95368V9.22105C21.2211 4.14316 17.0779 0 12 0C6.9221 0 2.77895 4.14316 2.77895 9.22105V9.95368C1.16211 10.56 0 12.1263 0 13.9453C0 16.2947 1.92 18.2147 4.26947 18.2147H5.81053C6.21474 18.2147 6.54316 17.8863 6.54316 17.4821V10.4084C6.54316 10.0042 6.21474 9.67579 5.81053 9.67579H5.10316V9.22105C5.10316 5.40632 8.21053 2.32421 12 2.32421C15.7895 2.32421 18.8968 5.43158 18.8968 9.22105V9.67579H18.1895C17.7853 9.67579 17.4568 10.0042 17.4568 10.4084V17.4821C17.4568 17.8863 17.7853 18.2147 18.1895 18.2147H18.5179C17.7853 19.9074 16.1684 21.0947 14.2484 21.2463C14.1474 20.7663 13.7179 20.3874 13.1874 20.3874H10.7874C10.1811 20.3874 9.70105 20.8674 9.70105 21.4737V22.7116C9.70105 23.3179 10.1811 23.7979 10.7874 23.7979H13.1874C13.7179 23.7979 14.1726 23.4189 14.2484 22.8884C17.1032 22.7368 19.4779 20.7916 20.2863 18.1642C22.3832 17.8863 24 16.0926 24 13.9453Z" fill="white"/>
</svg>
