<svg width="24" height="24" viewBox="0 0 24 24" fill="none" xmlns="http://www.w3.org/2000/svg">
<path d="M3 19.8571H12.0881H12.219H21.3071V17.5C20.3643 17.2643 18.6881 16.0857 18.6881 10.1928C18.6881 5.71428 15.6762 4.16904 13.7381 3.61905C13.8952 3.35714 13.9738 3.06905 13.9738 2.75476C13.9738 1.78571 13.1619 1 12.1929 1C11.2238 1 10.4119 1.78571 10.4119 2.75476C10.4119 3.06905 10.4905 3.35714 10.6476 3.61905C8.70952 4.14285 5.69762 5.71428 5.69762 10.1928C5.69762 16.0857 4.02143 17.2643 3.07857 17.5V19.8571H3Z" fill="#20DF9E"/>
<path d="M12.1405 23.0001C13.3976 23.0001 14.4453 21.9787 14.6286 20.6429H9.6524C9.83574 21.9787 10.8834 23.0001 12.1405 23.0001Z" fill="#20DF9E"/>
</svg>
