<svg xmlns="http://www.w3.org/2000/svg" viewBox="0 0 23.625 23.625" width="15" height="15"><path fill="#808a9b" d="M11.812 0C5.29 0 0 5.29 0 11.812s5.29 11.813 11.812 11.813 11.813-5.3 11.813-11.813S18.335 0 11.812 0zm2.46 18.307c-.608.24-1.092.422-1.455.548a3.838 3.838 0 0 1-1.262.189c-.736 0-1.31-.18-1.717-.54s-.61-.814-.61-1.367c0-.215.015-.435.045-.66a8.23 8.23 0 0 1 .147-.759l.76-2.688c.067-.258.125-.503.17-.73a3.24 3.24 0 0 0 .068-.633c0-.342-.07-.582-.212-.717s-.412-.2-.813-.2c-.196 0-.398.03-.605.1s-.383.12-.53.176l.2-.828c.498-.203.975-.377 1.43-.52a4.225 4.225 0 0 1 1.29-.218c.73 0 1.295.178 1.692.53s.594.812.594 1.376c0 .117-.014.323-.04.617a4.129 4.129 0 0 1-.152.811l-.757 2.68a7.582 7.582 0 0 0-.167.736 3.892 3.892 0 0 0-.073.626c0 .356.08.6.24.728s.435.194.827.194a2.4 2.4 0 0 0 .626-.097 3.56 3.56 0 0 0 .506-.17l-.203.827zM14.137 7.43a1.807 1.807 0 0 1-1.275.492c-.496 0-.924-.164-1.28-.492a1.57 1.57 0 0 1-.533-1.193c0-.465.18-.865.533-1.196a1.812 1.812 0 0 1 1.28-.497 1.79 1.79 0 0 1 1.275.497c.353.33.53.73.53 1.196s-.177.865-.53 1.193z"/></svg>