<svg width="24" height="24" viewBox="0 0 24 24" fill="none" xmlns="http://www.w3.org/2000/svg">
<g clip-path="url(#clip0)">
<path d="M12.504 0C12.349 0 12.189 0.008 12.024 0.021C7.79799 0.354 8.91899 4.828 8.85399 6.319C8.77799 7.411 8.55399 8.272 7.80399 9.339C6.91899 10.39 5.67699 12.089 5.08799 13.86C4.80999 14.692 4.67799 15.544 4.80099 16.349C4.75538 16.3859 4.71792 16.4319 4.69099 16.484C4.43099 16.752 4.24099 17.084 4.02799 17.323C3.82899 17.522 3.54299 17.59 3.23099 17.723C2.91799 17.859 2.57299 17.992 2.36699 18.403C2.27699 18.592 2.23099 18.797 2.23499 19.005C2.23499 19.204 2.26199 19.405 2.28999 19.541C2.34799 19.94 2.40599 20.269 2.32999 20.511C2.08099 21.191 2.04999 21.656 2.22399 21.995C2.39799 22.329 2.75899 22.465 3.16399 22.596C3.97399 22.796 5.07399 22.731 5.93799 23.196C6.86399 23.662 7.80399 23.866 8.55399 23.666C9.07999 23.55 9.52399 23.202 9.76199 22.72C10.349 22.717 10.992 22.451 12.022 22.386C12.721 22.328 13.596 22.653 14.599 22.586C14.624 22.72 14.662 22.784 14.713 22.919L14.716 22.922C15.107 23.7 15.829 24.054 16.6 23.993C17.371 23.933 18.192 23.457 18.857 22.687C19.488 21.922 20.54 21.603 21.235 21.184C21.583 20.985 21.864 20.715 21.884 20.331C21.907 19.931 21.684 19.52 21.17 18.955V18.858L21.167 18.855C20.997 18.655 20.917 18.32 20.829 17.929C20.744 17.528 20.647 17.143 20.337 16.883H20.334C20.275 16.829 20.211 16.816 20.146 16.748C20.0901 16.709 20.0241 16.6867 19.956 16.684C20.387 15.406 20.22 14.134 19.783 12.99C19.25 11.58 18.318 10.352 17.608 9.507C16.812 8.502 16.032 7.55 16.048 6.139C16.074 3.987 16.284 0.006 12.504 0V0ZM13.033 3.405H13.046C13.259 3.405 13.442 3.467 13.63 3.603C13.82 3.738 13.96 3.935 14.068 4.136C14.173 4.395 14.226 4.595 14.234 4.86C14.234 4.84 14.24 4.82 14.24 4.8V4.905C14.2378 4.89819 14.2364 4.89114 14.236 4.884L14.232 4.86C14.23 5.10303 14.179 5.34315 14.082 5.566C14.0353 5.69138 13.9627 5.80552 13.869 5.901C13.8407 5.885 13.8112 5.87097 13.781 5.859C13.677 5.814 13.583 5.795 13.497 5.726C13.4257 5.69761 13.3521 5.67553 13.277 5.66C13.327 5.6 13.423 5.527 13.46 5.462C13.513 5.334 13.542 5.198 13.548 5.06V5.04C13.5503 4.90419 13.5296 4.76896 13.487 4.64C13.442 4.506 13.386 4.44 13.304 4.307C13.22 4.241 13.137 4.175 13.037 4.175H13.021C12.928 4.175 12.845 4.205 12.759 4.307C12.664 4.39962 12.5936 4.51439 12.554 4.641C12.5009 4.76806 12.4704 4.90344 12.464 5.041V5.06C12.466 5.149 12.472 5.239 12.484 5.327C12.291 5.26 12.046 5.192 11.877 5.125C11.8669 5.05876 11.8609 4.99197 11.859 4.925V4.905C11.8511 4.64102 11.9024 4.37862 12.009 4.137C12.0907 3.91739 12.2416 3.73032 12.439 3.604C12.6099 3.47444 12.8185 3.40421 13.033 3.404V3.405ZM10.071 3.464H10.107C10.249 3.464 10.377 3.512 10.506 3.599C10.652 3.728 10.77 3.887 10.85 4.064C10.94 4.263 10.99 4.464 11.003 4.731V4.735C11.01 4.869 11.009 4.935 11.001 5.001V5.081C10.971 5.088 10.945 5.099 10.918 5.105C10.766 5.16 10.644 5.24 10.525 5.305C10.537 5.215 10.538 5.125 10.528 5.038V5.023C10.516 4.89 10.488 4.823 10.446 4.69C10.4148 4.58808 10.3576 4.49606 10.28 4.423C10.2553 4.40059 10.2264 4.38337 10.195 4.37238C10.1636 4.36138 10.1302 4.35683 10.097 4.359H10.076C10.005 4.365 9.94599 4.399 9.88999 4.491C9.8262 4.56842 9.78471 4.66177 9.76999 4.761C9.74296 4.86879 9.73517 4.9805 9.74699 5.091V5.106C9.75899 5.241 9.78399 5.306 9.82699 5.44C9.87299 5.574 9.92499 5.64 9.99299 5.708C10.003 5.717 10.013 5.726 10.027 5.732C9.95699 5.789 9.90999 5.802 9.85099 5.868C9.81357 5.90108 9.76858 5.92444 9.71999 5.936C9.61604 5.81083 9.52397 5.67625 9.44499 5.534C9.35045 5.32386 9.2978 5.0973 9.28999 4.867C9.27343 4.64126 9.30059 4.41445 9.36999 4.199C9.42507 4.00252 9.52156 3.8201 9.65299 3.664C9.78099 3.531 9.91299 3.464 10.071 3.464ZM11.441 5.17C11.773 5.17 12.174 5.235 12.657 5.569C12.95 5.769 13.18 5.838 13.709 6.037H13.712C13.967 6.173 14.117 6.303 14.19 6.436V6.305C14.2259 6.37771 14.2459 6.45724 14.2486 6.53828C14.2514 6.61932 14.2368 6.70001 14.206 6.775C14.083 7.085 13.69 7.418 13.143 7.617V7.619C12.875 7.754 12.642 7.952 12.368 8.084C12.092 8.219 11.78 8.376 11.356 8.351C11.2037 8.35889 11.0513 8.3361 10.908 8.284C10.7972 8.22374 10.6897 8.15765 10.586 8.086C10.391 7.951 10.223 7.754 9.97399 7.621V7.616H9.96899C9.56899 7.37 9.35299 7.104 9.28299 6.906C9.21299 6.638 9.27799 6.436 9.47599 6.306C9.69999 6.171 9.85599 6.035 9.95899 5.97C10.063 5.896 10.102 5.868 10.135 5.839H10.137V5.836C10.306 5.634 10.573 5.366 10.976 5.235C11.115 5.199 11.27 5.17 11.442 5.17H11.441ZM14.241 7.312C14.599 8.729 15.437 10.787 15.976 11.785C16.262 12.319 16.831 13.444 17.078 14.809C17.234 14.804 17.408 14.827 17.591 14.873C18.237 13.202 17.045 11.406 16.502 10.907C16.282 10.707 16.27 10.572 16.379 10.572C16.969 11.106 17.744 12.144 18.025 13.329C18.155 13.864 18.185 14.433 18.046 14.999C18.113 15.027 18.181 15.059 18.251 15.066C19.283 15.6 19.664 16.004 19.481 16.603V16.56C19.421 16.557 19.361 16.56 19.301 16.56H19.285C19.436 16.093 19.103 15.735 18.22 15.336C17.305 14.936 16.574 15 16.45 15.801C16.442 15.844 16.437 15.867 16.432 15.936C16.364 15.959 16.293 15.989 16.223 16C15.793 16.268 15.561 16.669 15.43 17.187C15.3 17.72 15.26 18.343 15.225 19.056V19.059C15.205 19.393 15.055 19.897 14.906 20.409C13.406 21.481 11.326 21.947 9.55799 20.743C9.44704 20.5491 9.31196 20.37 9.15599 20.21C9.08146 20.0859 8.98876 19.9736 8.88099 19.877C9.06299 19.877 9.21899 19.847 9.34599 19.81C9.48979 19.7433 9.60228 19.6236 9.65999 19.476C9.76799 19.209 9.65999 18.779 9.31499 18.313C8.96999 17.846 8.38399 17.318 7.52699 16.792C6.89699 16.392 6.54099 15.922 6.37699 15.396C6.21199 14.862 6.23399 14.311 6.36199 13.751C6.60699 12.681 7.23499 11.641 7.63599 10.988C7.74299 10.923 7.67299 11.123 7.22799 11.962C6.83199 12.713 6.08799 14.459 7.10599 15.816C7.14444 14.8259 7.36372 13.8512 7.75299 12.94C8.31699 11.662 9.49599 9.436 9.58899 7.672C9.63699 7.708 9.80599 7.807 9.87799 7.874C10.096 8.007 10.258 8.207 10.468 8.339C10.678 8.54 10.945 8.674 11.344 8.674C11.383 8.677 11.419 8.68 11.454 8.68C11.866 8.68 12.184 8.546 12.451 8.412C12.741 8.278 12.971 8.078 13.191 8.012H13.196C13.663 7.877 14.031 7.61 14.24 7.312H14.241ZM16.426 16.27C16.463 16.87 16.769 17.515 17.308 17.647C17.896 17.781 18.742 17.314 19.099 16.882L19.31 16.872C19.625 16.865 19.887 16.882 20.157 17.14L20.16 17.143C20.368 17.342 20.465 17.673 20.551 18.019C20.636 18.419 20.705 18.799 20.96 19.085C21.446 19.612 21.605 19.991 21.596 20.225L21.599 20.218V20.236L21.596 20.224C21.581 20.486 21.411 20.62 21.098 20.819C20.468 21.22 19.352 21.531 18.641 22.389C18.023 23.126 17.271 23.529 16.605 23.58C15.941 23.633 15.368 23.38 15.031 22.682L15.026 22.679C14.816 22.279 14.906 21.654 15.082 20.989C15.258 20.321 15.51 19.645 15.545 19.092C15.582 18.378 15.621 17.757 15.74 17.278C15.86 16.813 16.048 16.481 16.381 16.294L16.426 16.272V16.27ZM5.61199 16.319H5.62199C5.67499 16.319 5.72699 16.324 5.77899 16.333C6.15499 16.388 6.48499 16.666 6.80199 17.085L7.71199 18.749L7.71499 18.752C7.95799 19.285 8.46899 19.816 8.90399 20.389C9.33799 20.987 9.67399 21.52 9.63299 21.959V21.965C9.57599 22.709 9.15299 23.113 8.50799 23.259C7.86299 23.394 6.98799 23.261 6.11299 22.795C5.14499 22.259 3.99499 22.326 3.25599 22.193C2.88699 22.127 2.64599 21.993 2.53299 21.793C2.42299 21.593 2.41999 21.191 2.65599 20.563V20.559L2.65799 20.556C2.77499 20.222 2.68799 19.804 2.63099 19.438C2.57599 19.037 2.54799 18.728 2.67399 18.498C2.83399 18.164 3.06999 18.098 3.36399 17.965C3.65799 17.83 4.00399 17.763 4.27899 17.495H4.28099V17.493C4.53699 17.225 4.72599 16.892 4.94899 16.655C5.13899 16.454 5.32899 16.319 5.61199 16.319ZM12.771 7.245C12.336 7.446 11.826 7.78 11.283 7.78C10.741 7.78 10.313 7.513 10.003 7.314C9.84899 7.18 9.72299 7.046 9.62999 6.979C9.46599 6.845 9.48599 6.646 9.55599 6.646C9.66499 6.662 9.68499 6.78 9.75499 6.846C9.85099 6.912 9.96999 7.046 10.115 7.179C10.407 7.379 10.795 7.646 11.282 7.646C11.767 7.646 12.335 7.379 12.68 7.18C12.875 7.045 13.125 6.846 13.328 6.713C13.484 6.577 13.477 6.446 13.607 6.446C13.735 6.462 13.641 6.58 13.46 6.778C13.2382 6.94575 13.0079 7.10195 12.77 7.246L12.771 7.245ZM11.689 5.662V5.64C11.683 5.62 11.702 5.598 11.718 5.59C11.792 5.547 11.898 5.563 11.978 5.594C12.041 5.594 12.138 5.661 12.128 5.729C12.122 5.778 12.043 5.795 11.993 5.795C11.938 5.795 11.901 5.752 11.852 5.727C11.8 5.709 11.706 5.719 11.689 5.662ZM11.138 5.662C11.118 5.72 11.025 5.711 10.972 5.728C10.925 5.753 10.886 5.796 10.832 5.796C10.782 5.796 10.702 5.776 10.696 5.728C10.686 5.662 10.784 5.595 10.846 5.595C10.926 5.564 11.03 5.548 11.105 5.59C11.124 5.599 11.141 5.62 11.135 5.64V5.66H11.138V5.662Z" fill="url(#paint0_linear)"/>
</g>
<defs>
<linearGradient id="paint0_linear" x1="11.9999" y1="0" x2="11.9999" y2="23.9997" gradientUnits="userSpaceOnUse">
<stop stop-color="#57D5FD"/>
<stop offset="1" stop-color="#2F82FF"/>
</linearGradient>
<clipPath id="clip0">
<rect width="24" height="24" fill="white"/>
</clipPath>
</defs>
</svg>
