<svg width="17" height="22" viewBox="0 0 17 22" fill="none" xmlns="http://www.w3.org/2000/svg">
<path d="M14.4375 8.25H13.75V5.5C13.75 2.46675 11.2832 0 8.25 0C5.21675 0 2.75 2.46675 2.75 5.5V8.25H2.0625C0.925833 8.25 0 9.17492 0 10.3125V19.9375C0 21.0751 0.925833 22 2.0625 22H14.4375C15.5742 22 16.5 21.0751 16.5 19.9375V10.3125C16.5 9.17492 15.5742 8.25 14.4375 8.25ZM4.58333 5.5C4.58333 3.47783 6.22783 1.83333 8.25 1.83333C10.2722 1.83333 11.9167 3.47783 11.9167 5.5V8.25H4.58333V5.5ZM9.16667 15.3285V17.4167C9.16667 17.9227 8.75692 18.3333 8.25 18.3333C7.74308 18.3333 7.33333 17.9227 7.33333 17.4167V15.3285C6.78792 15.0104 6.41667 14.4256 6.41667 13.75C6.41667 12.7389 7.23892 11.9167 8.25 11.9167C9.26108 11.9167 10.0833 12.7389 10.0833 13.75C10.0833 14.4256 9.71208 15.0104 9.16667 15.3285Z" fill="#E84E58"/>
</svg>
