<svg width="20" height="20" viewBox="0 0 20 20" fill="none" xmlns="http://www.w3.org/2000/svg">
<path fill-rule="evenodd" clip-rule="evenodd" d="M4.58982 11.7041C4.06536 11.7041 3.63861 11.2777 3.63861 10.7536C3.63861 10.2295 4.06536 9.80318 4.58982 9.80318C5.11425 9.80318 5.541 10.2295 5.541 10.7536C5.541 11.2778 5.11425 11.7041 4.58982 11.7041ZM19.6079 16.3785C19.8244 16.3785 20 16.554 20 16.7704C20 16.9869 19.8244 17.1622 19.6079 17.1622H11.9213V18.2986C11.9213 18.5149 11.7457 18.6905 11.5292 18.6905H8.47082C8.25429 18.6905 8.07868 18.515 8.07868 18.2986V17.1622H0.392146C0.175626 17.1622 0 16.9869 0 16.7704C0 16.554 0.175644 16.3785 0.392146 16.3785H8.07868V15.2423C8.07868 15.0259 8.25432 14.8504 8.47082 14.8504H9.60782V13.48H3.81811C2.80178 13.48 1.97492 12.6538 1.97492 11.6382V9.86893C1.97492 8.85325 2.80178 8.02711 3.81811 8.02711H16.1815C17.1978 8.02711 18.0247 8.85328 18.0247 9.86893V11.6382C18.0247 12.6539 17.1978 13.48 16.1815 13.48H10.3918V14.8504H11.5288C11.7453 14.8504 11.9209 15.0259 11.9209 15.2423V16.3785H19.6079ZM15.9151 7.17703H3.60604C3.14343 7.17703 2.70842 7.29661 2.32967 7.506L4.08343 2.30308C4.28854 1.69454 4.86975 1.28564 5.52975 1.28564H13.9956C14.6556 1.28564 15.2368 1.69454 15.442 2.30308L17.1966 7.50886C16.8168 7.29778 16.38 7.17696 15.9151 7.17696L15.9151 7.17703Z" fill="#82829C"/>
</svg>
