<svg width="22" height="22" viewBox="0 0 22 22" fill="none" xmlns="http://www.w3.org/2000/svg">
<path fill-rule="evenodd" clip-rule="evenodd" d="M22 11C22 17.0751 17.0751 22 11 22C4.92487 22 0 17.0751 0 11C0 4.92487 4.92487 0 11 0C17.0751 0 22 4.92487 22 11ZM11.9303 7.61099H12.2482V7.86241C12.2482 7.99511 12.2089 8.10337 12.1303 8.18718C12.0551 8.26749 11.9491 8.30765 11.8124 8.30765C11.5595 8.30765 11.4331 8.19591 11.4331 7.97241C11.4331 7.86765 11.4758 7.7821 11.5612 7.71575C11.6467 7.64591 11.7697 7.61099 11.9303 7.61099ZM10.9871 6.23337V6.8148C11.2195 6.65765 11.4741 6.57908 11.7509 6.57908C11.9321 6.57908 12.0602 6.61749 12.1354 6.69432C12.2106 6.77114 12.2482 6.88289 12.2482 7.02956V7.19194H11.8688C11.5202 7.19194 11.2537 7.26353 11.0691 7.4067C10.8846 7.54987 10.7923 7.74718 10.7923 7.9986C10.7923 8.2221 10.8641 8.40718 11.0076 8.55384C11.1546 8.70051 11.3511 8.77384 11.5971 8.77384C11.9286 8.77384 12.1542 8.66035 12.2738 8.43337V8.75289H12.8839V7.05575C12.8839 6.38527 12.5318 6.05003 11.8278 6.05003C11.4621 6.05003 11.1819 6.11114 10.9871 6.23337ZM7.21523 6.51622V6.09718H6.60007V8.75289H7.21523V7.32813C7.21523 7.07321 7.26821 6.88638 7.37415 6.76765C7.4801 6.64892 7.59971 6.58956 7.733 6.58956C7.99957 6.58956 8.13286 6.76765 8.13286 7.12384V8.75289H8.75315V7.32813C8.75315 7.07321 8.80441 6.88638 8.90694 6.76765C9.01289 6.64892 9.1325 6.58956 9.26579 6.58956C9.53236 6.58956 9.66565 6.76765 9.66565 7.12384V8.75289H10.2859V7.00337C10.2859 6.70305 10.2142 6.47257 10.0706 6.31194C9.92709 6.14781 9.72375 6.06575 9.46059 6.06575C9.28629 6.06575 9.13079 6.1094 8.99409 6.1967C8.85739 6.284 8.75486 6.40797 8.68651 6.5686C8.57373 6.23337 8.32766 6.06575 7.94831 6.06575C7.60655 6.06575 7.36219 6.21591 7.21523 6.51622ZM14.0108 7.43289C14.0177 7.68432 14.0911 7.88686 14.2313 8.04051C14.3748 8.19416 14.5679 8.27099 14.8105 8.27099C15.0224 8.27099 15.2189 8.21162 15.4001 8.09289V8.63765C15.2189 8.74591 14.9934 8.80003 14.7234 8.80003C14.3235 8.80003 13.9989 8.67083 13.7494 8.41241C13.5033 8.154 13.3803 7.82749 13.3803 7.43289C13.3837 7.04527 13.5067 6.71876 13.7494 6.45337C13.9954 6.18797 14.3304 6.05527 14.7541 6.05527C15.007 6.05527 15.2224 6.10416 15.4001 6.20194V6.75718C15.2292 6.64543 15.0344 6.58956 14.8157 6.58956C14.5764 6.58956 14.3833 6.66638 14.2364 6.82003C14.0894 6.97368 14.0142 7.17797 14.0108 7.43289ZM7.24325 11.2028C6.81446 11.7048 6.60007 12.3705 6.60007 13.2C6.60007 14.0242 6.81695 14.6872 7.25072 15.1892C7.6845 15.6911 8.26286 15.942 8.98581 15.942C9.70876 15.942 10.2846 15.6911 10.7134 15.1892C11.1472 14.6872 11.3641 14.0242 11.3641 13.2C11.3641 12.3652 11.1497 11.6995 10.7209 11.2028C10.2921 10.7009 9.71126 10.45 8.97833 10.45C8.25538 10.45 7.67702 10.7009 7.24325 11.2028ZM7.98365 14.5314C7.73435 14.2038 7.60971 13.76 7.60971 13.2C7.60971 12.6346 7.73186 12.1882 7.97617 11.8606C8.22048 11.5331 8.55453 11.3693 8.97833 11.3693C9.40712 11.3693 9.74366 11.5331 9.98797 11.8606C10.2323 12.1882 10.3544 12.6346 10.3544 13.2C10.3544 13.7653 10.2323 14.2117 9.98797 14.5393C9.74366 14.8616 9.40961 15.0227 8.98581 15.0227C8.567 15.0227 8.23294 14.8589 7.98365 14.5314ZM15.1607 11.7338V10.767C14.8167 10.5926 14.4079 10.5054 13.9342 10.5054C13.4107 10.5054 12.9894 10.6428 12.6703 10.9175C12.3562 11.1923 12.1991 11.5568 12.1991 12.0112C12.1991 12.2278 12.2315 12.4207 12.2964 12.5897C12.3662 12.7588 12.4684 12.9041 12.603 13.0256C12.7376 13.1471 12.8623 13.2449 12.9769 13.3188C13.0916 13.3875 13.2412 13.4668 13.4257 13.5566C13.4506 13.5672 13.488 13.5857 13.5378 13.6121C13.7173 13.6966 13.8345 13.7547 13.8893 13.7864C13.9492 13.8181 14.0314 13.871 14.1361 13.9449C14.2458 14.0189 14.3181 14.0929 14.353 14.1668C14.3879 14.2408 14.4054 14.3253 14.4054 14.4204C14.4054 14.6212 14.3356 14.7823 14.196 14.9039C14.0564 15.0201 13.8719 15.0782 13.6425 15.0782C13.134 15.0782 12.6653 14.9144 12.2365 14.5869V15.6092C12.6105 15.8364 13.0816 15.95 13.65 15.95C14.1735 15.95 14.5948 15.81 14.9139 15.5299C15.238 15.2446 15.4001 14.8642 15.4001 14.3887C15.4001 14.1615 15.3627 13.9608 15.2879 13.7864C15.2181 13.6068 15.1084 13.4536 14.9588 13.3268C14.8142 13.2 14.6796 13.1022 14.555 13.0335C14.4303 12.9596 14.2683 12.875 14.0688 12.7799C13.7846 12.6426 13.5702 12.5184 13.4257 12.4075C13.2861 12.2912 13.2163 12.1459 13.2163 11.9716C13.2163 11.7972 13.2811 11.6546 13.4107 11.5436C13.5453 11.4327 13.7298 11.3772 13.9641 11.3772C14.3879 11.3772 14.7868 11.4961 15.1607 11.7338Z" fill="url(#paint0_linear)"/>
<defs>
<linearGradient id="paint0_linear" x1="11" y1="0" x2="11" y2="22" gradientUnits="userSpaceOnUse">
<stop stop-color="#57D5FD"/>
<stop offset="1" stop-color="#2F82FF"/>
</linearGradient>
</defs>
</svg>
