<svg width="24" height="24" viewBox="0 0 24 24" fill="none" xmlns="http://www.w3.org/2000/svg">
<rect x="6" y="1.5" width="12" height="19" rx="1" fill="url(#paint0_linear)"/>
<path fill-rule="evenodd" clip-rule="evenodd" d="M7.38372 1H16.8404C17.7612 1 18.5152 1.75394 18.5152 2.67476V21.3252C18.5152 22.2461 17.7612 23 16.8404 23H7.38372C6.4629 23 5.70895 22.2461 5.70895 21.3252V2.67476C5.70895 1.75394 6.4629 1 7.38372 1V1ZM12.1115 20.4524C12.4824 20.4524 12.785 20.7538 12.785 21.1259C12.785 21.4969 12.4836 21.7995 12.1115 21.7995C11.7405 21.7995 11.438 21.4981 11.438 21.1259C11.438 20.755 11.7393 20.4524 12.1115 20.4524ZM7.38372 1.79956H16.8404C17.3218 1.79956 17.7144 2.19334 17.7144 2.67356V19.2507H6.50852V2.67356C6.50852 2.19214 6.9023 1.79956 7.38251 1.79956H7.38372Z" fill="url(#paint1_linear)"/>
<path d="M9.95529 3.56072C9.72478 3.56072 9.5387 3.37343 9.5387 3.14413C9.5387 2.91362 9.72598 2.72754 9.95529 2.72754H12.9639C13.1944 2.72754 13.3804 2.91482 13.3804 3.14413C13.3804 3.37463 13.1932 3.56072 12.9639 3.56072H9.95529Z" fill="white"/>
<path d="M14.2652 3.56072C14.0335 3.56072 13.8463 3.37343 13.8463 3.14413C13.8463 2.91362 14.0335 2.72754 14.2628 2.72754C14.4969 2.72754 14.6842 2.91482 14.6842 3.14413C14.6842 3.37463 14.4969 3.56072 14.2652 3.56072Z" fill="white"/>
<defs>
<linearGradient id="paint0_linear" x1="12" y1="1.5" x2="12" y2="20.5" gradientUnits="userSpaceOnUse">
<stop stop-color="#57D5FD"/>
<stop offset="1" stop-color="#2F82FF"/>
</linearGradient>
<linearGradient id="paint1_linear" x1="12.1121" y1="1" x2="12.1121" y2="23" gradientUnits="userSpaceOnUse">
<stop stop-color="#57D5FD"/>
<stop offset="1" stop-color="#2F82FF"/>
</linearGradient>
</defs>
</svg>
