<svg width="13" height="20" viewBox="0 0 13 20" fill="none" xmlns="http://www.w3.org/2000/svg">
<path d="M6.5 0.625C2.91694 0.625 0 3.67188 0 7.41455C0 12.0618 5.81634 18.8843 6.06526 19.1699C6.29665 19.4409 6.70334 19.4409 6.93473 19.1699C7.18366 18.8806 13 12.0618 13 7.41455C13.0035 3.67188 10.0866 0.625 6.5 0.625ZM6.5 10.8313C4.69795 10.8313 3.22896 9.29688 3.22896 7.41455C3.22896 5.53223 4.69795 3.9978 6.5 3.9978C8.30205 3.9978 9.77103 5.53223 9.77103 7.41455C9.77103 9.29688 8.30555 10.8313 6.5 10.8313Z" fill="#82829C"/>
</svg>
