<svg width="19" height="24" viewBox="0 0 19 24" fill="none" xmlns="http://www.w3.org/2000/svg">
<path d="M9.05 0.0496568L0.516669 3.24998C0.214669 3.36438 -0.0007182 3.67704 1.79971e-06 4.00003V14.1343C1.79971e-06 16.3397 1.32093 18.1434 3.03333 19.6765C4.74573 21.2097 6.90667 22.5368 8.89168 23.8603C9.16443 24.0451 9.52077 24.0481 9.77499 23.8603C11.76 22.5368 13.9209 21.2097 15.6333 19.6765C17.3457 18.1434 18.6667 16.3397 18.6667 14.1343V4.00003C18.6667 3.67704 18.452 3.36438 18.15 3.24998L9.61667 0.0496568C9.41483 -0.0265832 9.23672 -0.00570322 9.05 0.0496568ZM9.33333 1.64982L17.0667 4.5501V14.1343C17.0667 15.6981 16.1209 17.0931 14.5667 18.4847C13.1261 19.7745 11.2103 21.0015 9.33333 22.2434C7.4564 21.0015 5.54056 19.7745 4.1 18.4847C2.54573 17.0931 1.6 15.6981 1.6 14.1343V4.5501L9.33333 1.64982ZM14.1583 7.46702C14.117 7.46436 14.0829 7.47022 14.0417 7.47529C13.8621 7.49902 13.6915 7.58582 13.5667 7.71699L7.73333 13.601L5.09168 11.4007C4.77912 11.0826 4.18483 11.1076 3.9 11.4507C3.6152 11.7939 3.70472 12.3773 4.07499 12.6259L7.27499 15.2844C7.5844 15.5477 8.07144 15.5206 8.35 15.2427L14.7 8.84214C14.9381 8.61 15.0026 8.21662 14.8583 7.91707C14.7321 7.65494 14.4476 7.47942 14.1583 7.46702Z" fill="white"/>
</svg>
