<svg width="24" height="27" viewBox="0 0 24 27" fill="none" xmlns="http://www.w3.org/2000/svg">
<path d="M18.0666 5.55006L10.3333 2.64978L2.59998 5.55006V15.1343C2.59998 16.6981 3.54571 18.0931 5.09998 19.4847C6.54053 20.7745 8.45637 22.0015 10.3333 23.2434C12.2102 22.0015 14.1261 20.7745 15.5666 19.4847C17.1209 18.0931 18.0666 16.6981 18.0666 15.1343V5.55006Z" fill="#20DF9E"/>
<path d="M10.05 1.04966L1.51667 4.24998C1.21467 4.36438 0.999282 4.67704 1 5.00003V15.1343C1 17.3397 2.32093 19.1434 4.03333 20.6765C5.74573 22.2097 7.90667 23.5368 9.89168 24.8603C10.1644 25.0451 10.5208 25.0481 10.775 24.8603C12.76 23.5368 14.9209 22.2097 16.6333 20.6765C18.3457 19.1434 19.6667 17.3397 19.6667 15.1343V5.00003C19.6667 4.67704 19.452 4.36438 19.15 4.24998L10.6167 1.04966C10.4148 0.973417 10.2367 0.994297 10.05 1.04966ZM10.3333 2.64982L18.0667 5.5501V15.1343C18.0667 16.6981 17.1209 18.0931 15.5667 19.4847C14.1261 20.7745 12.2103 22.0015 10.3333 23.2434C8.4564 22.0015 6.54056 20.7745 5.1 19.4847C3.54573 18.0931 2.6 16.6981 2.6 15.1343V5.5501L10.3333 2.64982ZM15.1583 8.46702C15.117 8.46436 15.0829 8.47022 15.0417 8.47529C14.8621 8.49902 14.6915 8.58582 14.5667 8.71699L8.73333 14.601L6.09168 12.4007C5.77912 12.0826 5.18483 12.1076 4.9 12.4507C4.6152 12.7939 4.70472 13.3773 5.07499 13.6259L8.27499 16.2844C8.5844 16.5477 9.07144 16.5206 9.35 16.2427L15.7 9.84214C15.9381 9.61 16.0026 9.21662 15.8583 8.91707C15.7321 8.65494 15.4476 8.47942 15.1583 8.46702Z" fill="white"/>
<circle cx="17.5172" cy="20.5172" r="4.96552" fill="url(#paint0_linear)" stroke="white" stroke-width="1.10345"/>
<path d="M17.7482 23.3448C19.3247 23.3448 20.207 22.5519 20.207 21.5105C20.207 19.2028 16.8423 19.9129 16.8423 19.0608C16.8423 18.7413 17.1953 18.4928 17.7364 18.4928C18.4306 18.4928 19.0776 18.7886 19.4188 19.1555L20.0188 18.1259C19.4541 17.6762 18.6894 17.3448 17.7247 17.3448C16.2306 17.3448 15.3953 18.1851 15.3953 19.1437C15.3953 21.3922 18.7717 20.623 18.7717 21.5697C18.7717 21.9247 18.4659 22.1851 17.8188 22.1851C17.1129 22.1851 16.2659 21.7946 15.8541 21.404L15.207 22.4573C15.807 23.0135 16.76 23.3448 17.7482 23.3448Z" fill="white"/>
<defs>
<linearGradient id="paint0_linear" x1="17.5172" y1="15" x2="17.5172" y2="26.0345" gradientUnits="userSpaceOnUse">
<stop stop-color="#5695FD"/>
<stop offset="1" stop-color="#1554FF"/>
</linearGradient>
</defs>
</svg>
