<svg width="14" height="14" viewBox="0 0 14 14" fill="none" xmlns="http://www.w3.org/2000/svg">
<path d="M11 13V12H12V13H11Z" fill="url(#paint0_linear)"/>
<path d="M8 11V10H9V11H8Z" fill="url(#paint1_linear)"/>
<path d="M8 14H10V13H9V12H8V14Z" fill="url(#paint2_linear)"/>
<path d="M12 12V10H13V12H12Z" fill="url(#paint3_linear)"/>
<path d="M13 12H14V14H12V13H13V12Z" fill="url(#paint4_linear)"/>
<path d="M12 9V8H14V10H13V9H12Z" fill="url(#paint5_linear)"/>
<path d="M11 9H10V11H9V12H11V9Z" fill="url(#paint6_linear)"/>
<path d="M8 9V8H10V9H8Z" fill="url(#paint7_linear)"/>
<path d="M2 10H4V12H2V10Z" fill="url(#paint8_linear)"/>
<path d="M6 14H0V8H6V14ZM1 13H5V9H1V13Z" fill="url(#paint9_linear)"/>
<path d="M10 2H12V4H10V2Z" fill="url(#paint10_linear)"/>
<path d="M14 6H8V0H14V6ZM9 5H13V1H9V5Z" fill="url(#paint11_linear)"/>
<path d="M2 2H4V4H2V2Z" fill="url(#paint12_linear)"/>
<path d="M6 6H0V0H6V6ZM1 5H5V1H1V5Z" fill="url(#paint13_linear)"/>
<defs>
<linearGradient id="paint0_linear" x1="11.5" y1="12" x2="11.5" y2="13" gradientUnits="userSpaceOnUse">
<stop stop-color="#57D5FD"/>
<stop offset="1" stop-color="#2F82FF"/>
</linearGradient>
<linearGradient id="paint1_linear" x1="8.5" y1="10" x2="8.5" y2="11" gradientUnits="userSpaceOnUse">
<stop stop-color="#57D5FD"/>
<stop offset="1" stop-color="#2F82FF"/>
</linearGradient>
<linearGradient id="paint2_linear" x1="9" y1="12" x2="9" y2="14" gradientUnits="userSpaceOnUse">
<stop stop-color="#57D5FD"/>
<stop offset="1" stop-color="#2F82FF"/>
</linearGradient>
<linearGradient id="paint3_linear" x1="12.5" y1="10" x2="12.5" y2="12" gradientUnits="userSpaceOnUse">
<stop stop-color="#57D5FD"/>
<stop offset="1" stop-color="#2F82FF"/>
</linearGradient>
<linearGradient id="paint4_linear" x1="13" y1="12" x2="13" y2="14" gradientUnits="userSpaceOnUse">
<stop stop-color="#57D5FD"/>
<stop offset="1" stop-color="#2F82FF"/>
</linearGradient>
<linearGradient id="paint5_linear" x1="13" y1="8" x2="13" y2="10" gradientUnits="userSpaceOnUse">
<stop stop-color="#57D5FD"/>
<stop offset="1" stop-color="#2F82FF"/>
</linearGradient>
<linearGradient id="paint6_linear" x1="10" y1="9" x2="10" y2="12" gradientUnits="userSpaceOnUse">
<stop stop-color="#57D5FD"/>
<stop offset="1" stop-color="#2F82FF"/>
</linearGradient>
<linearGradient id="paint7_linear" x1="9" y1="8" x2="9" y2="9" gradientUnits="userSpaceOnUse">
<stop stop-color="#57D5FD"/>
<stop offset="1" stop-color="#2F82FF"/>
</linearGradient>
<linearGradient id="paint8_linear" x1="3" y1="10" x2="3" y2="12" gradientUnits="userSpaceOnUse">
<stop stop-color="#57D5FD"/>
<stop offset="1" stop-color="#2F82FF"/>
</linearGradient>
<linearGradient id="paint9_linear" x1="3" y1="8" x2="3" y2="14" gradientUnits="userSpaceOnUse">
<stop stop-color="#57D5FD"/>
<stop offset="1" stop-color="#2F82FF"/>
</linearGradient>
<linearGradient id="paint10_linear" x1="11" y1="2" x2="11" y2="4" gradientUnits="userSpaceOnUse">
<stop stop-color="#57D5FD"/>
<stop offset="1" stop-color="#2F82FF"/>
</linearGradient>
<linearGradient id="paint11_linear" x1="11" y1="0" x2="11" y2="6" gradientUnits="userSpaceOnUse">
<stop stop-color="#57D5FD"/>
<stop offset="1" stop-color="#2F82FF"/>
</linearGradient>
<linearGradient id="paint12_linear" x1="3" y1="2" x2="3" y2="4" gradientUnits="userSpaceOnUse">
<stop stop-color="#57D5FD"/>
<stop offset="1" stop-color="#2F82FF"/>
</linearGradient>
<linearGradient id="paint13_linear" x1="3" y1="0" x2="3" y2="6" gradientUnits="userSpaceOnUse">
<stop stop-color="#57D5FD"/>
<stop offset="1" stop-color="#2F82FF"/>
</linearGradient>
</defs>
</svg>
