<svg width="16" height="16" viewBox="0 0 16 16" fill="none" xmlns="http://www.w3.org/2000/svg">
<path d="M14.7964 13.7474L11.3345 10.2842C12.2255 9.25263 12.7091 7.97544 12.7091 6.64912C12.7091 3.52982 10.0873 1 6.85455 1C3.62182 1 1 3.52982 1 6.64912C1 9.76842 3.62182 12.2982 6.85455 12.2982C8.07636 12.2982 9.22182 11.9544 10.2145 11.2667L13.6764 14.7544C13.8291 14.9018 14.0073 14.9754 14.2364 14.9754C14.44 14.9754 14.6182 14.9018 14.7709 14.7789C15.0764 14.5088 15.0764 14.0421 14.7964 13.7474ZM6.85455 2.47368C9.24727 2.47368 11.1818 4.34035 11.1818 6.64912C11.1818 8.95789 9.24727 10.8246 6.85455 10.8246C4.46182 10.8246 2.52727 8.95789 2.52727 6.64912C2.52727 4.34035 4.46182 2.47368 6.85455 2.47368Z" fill="#83909C"/>
</svg>
