<svg width="18" height="18" viewBox="0 0 18 18" fill="none" xmlns="http://www.w3.org/2000/svg">
<g clip-path="url(#clip0)">
<path d="M15.463 6.63157C11.869 3.18128 6.04017 3.18128 2.44621 6.63157L0.0603027 8.97075L2.50661 11.3392C4.28849 13.0643 6.6744 13.9415 9.0301 13.9415C11.3858 13.9415 13.7415 13.0643 15.5536 11.3392L17.9395 9.02923L15.463 6.63157ZM15.1006 10.9298C11.7482 14.1754 6.28178 14.1754 2.92943 10.9298L0.90594 8.97075L2.86903 7.07017C6.22138 3.82456 11.6878 3.82456 15.0402 7.07017L17.0637 9.02923L15.1006 10.9298Z" fill="white" stroke="white" stroke-width="0.25" stroke-miterlimit="10"/>
<path d="M8.96963 5.19882C6.79514 5.19882 5.04346 6.89473 5.04346 8.99999C5.04346 11.1053 6.79514 12.8012 8.96963 12.8012C11.1441 12.8012 12.8958 11.1053 12.8958 8.99999C12.8958 6.89473 11.1441 5.19882 8.96963 5.19882ZM8.96963 12.2164C7.12735 12.2164 5.64748 10.7836 5.64748 8.99999C5.64748 7.21637 7.12735 5.78362 8.96963 5.78362C10.8119 5.78362 12.2918 7.21637 12.2918 8.99999C12.2918 10.7836 10.8119 12.2164 8.96963 12.2164Z" fill="white" stroke="white" stroke-width="0.25" stroke-miterlimit="10"/>
</g>
<defs>
<clipPath id="clip0">
<rect width="18" height="10" fill="white" transform="translate(0 4)"/>
</clipPath>
</defs>
</svg>
