<svg width="18" height="18" viewBox="0 0 18 18" fill="none" xmlns="http://www.w3.org/2000/svg">
<g clip-path="url(#clip0)">
<path d="M15.4631 6.63154C11.8692 3.18125 6.04029 3.18125 2.44633 6.63154L0.0604248 8.97072L2.50673 11.3391C4.28861 13.0643 6.67452 13.9415 9.03022 13.9415C11.3859 13.9415 13.7416 13.0643 15.5537 11.3391L17.9396 9.0292L15.4631 6.63154ZM15.1007 10.9298C11.7483 14.1754 6.2819 14.1754 2.92955 10.9298L0.906062 8.97072L2.86915 7.07014C6.2215 3.82453 11.6879 3.82453 15.0403 7.07014L17.0638 9.0292L15.1007 10.9298Z" fill="white" stroke="white" stroke-width="0.25" stroke-miterlimit="10"/>
<path d="M8.96985 5.19885C6.79535 5.19885 5.04367 6.89476 5.04367 9.00002C5.04367 11.1053 6.79535 12.8012 8.96985 12.8012C11.1443 12.8012 12.896 11.1053 12.896 9.00002C12.896 6.89476 11.1443 5.19885 8.96985 5.19885ZM8.96985 12.2164C7.12756 12.2164 5.6477 10.7836 5.6477 9.00002C5.6477 7.2164 7.12756 5.78365 8.96985 5.78365C10.8121 5.78365 12.292 7.2164 12.292 9.00002C12.292 10.7836 10.8121 12.2164 8.96985 12.2164Z" fill="white" stroke="white" stroke-width="0.25" stroke-miterlimit="10"/>
</g>
<line x1="1.35355" y1="0.646447" x2="16.8616" y2="16.1545" stroke="white"/>
<defs>
<clipPath id="clip0">
<rect width="18" height="10" fill="white" transform="translate(0 4)"/>
</clipPath>
</defs>
</svg>
