<svg width="139" height="169" viewBox="0 0 139 169" fill="none" xmlns="http://www.w3.org/2000/svg">
<g opacity="0.3">
<path d="M69.39 168.78C69.39 168.78 138.78 107.713 138.78 69.39C138.78 31.067 107.713 0 69.39 0C31.067 0 0 31.067 0 69.39C0 107.713 69.39 168.78 69.39 168.78Z" fill="#293A53"/>
<path d="M101.83 48.49H38.7301C27.2401 48.49 17.8301 57.89 17.8301 69.39C17.8301 80.88 27.2301 90.29 38.7301 90.29H101.83C113.32 90.29 122.73 80.89 122.73 69.39C122.73 57.89 113.32 48.49 101.83 48.49Z" fill="white"/>
<path d="M58.5654 62.2177L53.1435 76.9146H49.8408L46.0428 66.7864L42.1897 76.9146H38.887L33.4927 62.2177H36.7403L40.6209 73.0614L44.6667 62.2177H47.5565L51.5197 73.1165L55.5104 62.2177H58.5654ZM83.588 62.2177L78.1661 76.9146H74.8635L71.0654 66.7864L67.2123 76.9146H63.9096L58.5153 62.2177H61.7629L65.6435 73.0614L69.6893 62.2177H72.5791L76.5423 73.1165L80.533 62.2177H83.588ZM108.611 62.2177L103.189 76.9146H99.8861L96.088 66.7864L92.2349 76.9146H88.9323L83.5379 62.2177H86.7855L90.6662 73.0614L94.7119 62.2177H97.6018L101.565 73.1165L105.556 62.2177H108.611Z" fill="#293A53"/>
</g>
</svg>
