<svg width="16" height="16" viewBox="0 0 16 16" fill="none" xmlns="http://www.w3.org/2000/svg">
<rect x="0.5" y="0.5" width="15" height="15" rx="7.5" stroke="#2FA6F8"/>
<path d="M10.2212 5.69558C10.4448 5.9192 10.4448 6.28177 10.2212 6.5054L8.74045 7.98611L10.2628 9.50849C10.4711 9.71677 10.4711 10.0545 10.2628 10.2627C10.0546 10.471 9.71687 10.471 9.50859 10.2627L7.9862 8.74035L6.50549 10.2211C6.28187 10.4447 5.9193 10.4447 5.69567 10.2211C5.47204 9.99743 5.47204 9.63486 5.69567 9.41124L7.17638 7.93053L5.73735 6.49151C5.52907 6.28323 5.52907 5.94554 5.73735 5.73726C5.94563 5.52898 6.28332 5.52898 6.4916 5.73726L7.93062 7.17628L9.41133 5.69558C9.63496 5.47195 9.99753 5.47195 10.2212 5.69558Z" fill="#2FA6F8"/>
</svg>
