<svg width="20" height="20" viewBox="0 0 20 20" fill="none" xmlns="http://www.w3.org/2000/svg">
<path d="M12.7763 7.11947C13.0559 7.399 13.0559 7.85222 12.7763 8.13175L10.9254 9.98263L12.8284 11.8856C13.0888 12.146 13.0888 12.5681 12.8284 12.8284C12.5681 13.0888 12.146 13.0888 11.8856 12.8284L9.98263 10.9254L8.13174 12.7763C7.85221 13.0559 7.399 13.0559 7.11946 12.7763C6.83993 12.4968 6.83993 12.0436 7.11946 11.764L8.97035 9.91316L7.17157 8.11438C6.91122 7.85403 6.91122 7.43192 7.17157 7.17157C7.43192 6.91122 7.85403 6.91122 8.11438 7.17157L9.91316 8.97035L11.764 7.11947C12.0436 6.83994 12.4968 6.83994 12.7763 7.11947Z" fill="#3066FF"/>
<rect x="0.5" y="0.5" width="19" height="19" rx="9.5" fill="#3066FF" fill-opacity="0.2" stroke="#3066FF"/>
</svg>
