<svg width="24" height="11" viewBox="0 0 24 11" fill="none" xmlns="http://www.w3.org/2000/svg">
<path d="M23.7944 9.40751L19.4307 0.608253C19.0608 -0.137484 17.8488 -0.137484 17.479 0.608253L13.1153 9.40751C12.9858 9.66845 12.9645 9.97055 13.0559 10.2474C13.1474 10.5242 13.3441 10.753 13.6029 10.8836C13.8618 11.0141 14.1614 11.0357 14.436 10.9435C14.7105 10.8513 14.9375 10.6529 15.067 10.3919L15.8557 8.79926H21.0529L21.8427 10.3908C21.9065 10.5202 21.9949 10.6356 22.1031 10.7304C22.2112 10.8253 22.3368 10.8977 22.4727 10.9434C22.6086 10.9892 22.7521 11.0075 22.8951 10.9972C23.038 10.987 23.1775 10.9483 23.3056 10.8836C23.8445 10.6108 24.0638 9.95086 23.7944 9.40751ZM16.9466 6.59945L18.4543 3.5593L19.9619 6.59945H16.9466Z" fill="#FFFFFF"/>
<path d="M12.2728 6.59947H10.0909C9.80159 6.59947 9.52411 6.48359 9.31952 6.27732C9.11494 6.07104 9 5.79128 9 5.49957C9 5.20785 9.11494 4.92809 9.31952 4.72181C9.52411 4.51554 9.80159 4.39966 10.0909 4.39966H12.2728C12.5621 4.39966 12.8396 4.51554 13.0442 4.72181C13.2488 4.92809 13.3637 5.20785 13.3637 5.49957C13.3637 5.79128 13.2488 6.07104 13.0442 6.27732C12.8396 6.48359 12.5621 6.59947 12.2728 6.59947Z" fill="#FFFFFF"/>
<path d="M7.63647 10.9991H1.09092C0.888493 10.9987 0.690161 10.9415 0.518069 10.8341C0.345978 10.7266 0.206903 10.573 0.116373 10.3905C0.0258435 10.2079 -0.0125767 10.0036 0.00540161 9.80028C0.02338 9.59699 0.0970494 9.40274 0.218184 9.23922L5.45462 2.19981H1.09092C0.801592 2.19981 0.524113 2.08393 0.319525 1.87766C0.114937 1.67139 0 1.39162 0 1.09991C0 0.808194 0.114937 0.528428 0.319525 0.322156C0.524113 0.115883 0.801592 0 1.09092 0H7.63647C7.8389 0.000406975 8.03723 0.0575365 8.20933 0.16501C8.38142 0.272483 8.52049 0.426069 8.61102 0.608619C8.70155 0.791169 8.73997 0.995497 8.72199 1.19879C8.70401 1.40208 8.63034 1.59633 8.50921 1.75985L3.27277 8.79926H7.63647C7.9258 8.79926 8.20328 8.91514 8.40787 9.12141C8.61246 9.32768 8.72739 9.60745 8.72739 9.89916C8.72739 10.1909 8.61246 10.4706 8.40787 10.6769C8.20328 10.8832 7.9258 10.9991 7.63647 10.9991Z" fill="#FFFFFF"/>
</svg>
