<svg width="24" height="11" viewBox="0 0 24 11" fill="none" xmlns="http://www.w3.org/2000/svg">
<path d="M10.7944 9.4075L6.43067 0.608249C6.06084 -0.137488 4.84882 -0.137488 4.479 0.608249L0.115304 9.4075C-0.0141714 9.66844 -0.0355335 9.97055 0.0559173 10.2474C0.147368 10.5242 0.344141 10.753 0.602947 10.8836C0.861754 11.0141 1.16139 11.0357 1.43595 10.9435C1.71051 10.8513 1.93749 10.6529 2.06697 10.3919L2.85571 8.79926H8.05287L8.8427 10.3908C8.90647 10.5202 8.99495 10.6356 9.10306 10.7304C9.21117 10.8253 9.33678 10.8977 9.47269 10.9434C9.6086 10.9892 9.75214 11.0075 9.89508 10.9972C10.038 10.987 10.1775 10.9483 10.3056 10.8836C10.8445 10.6108 11.0638 9.95086 10.7944 9.4075ZM3.94663 6.59944L5.45429 3.5593L6.96195 6.59944H3.94663ZM22.9091 10.9991H16.3635C16.1611 10.9987 15.9628 10.9415 15.7907 10.8341C15.6186 10.7266 15.4795 10.573 15.389 10.3905C15.2984 10.2079 15.26 10.0036 15.278 9.80028C15.296 9.59699 15.3697 9.40274 15.4908 9.23922L20.7272 2.19981H16.3635C16.0742 2.19981 15.7967 2.08393 15.5921 1.87766C15.3875 1.67139 15.2726 1.39162 15.2726 1.09991C15.2726 0.808194 15.3875 0.528428 15.5921 0.322156C15.7967 0.115883 16.0742 0 16.3635 0H22.9091C23.1115 0.000406975 23.3098 0.0575365 23.4819 0.16501C23.654 0.272483 23.7931 0.426069 23.8836 0.608619C23.9742 0.791169 24.0126 0.995497 23.9946 1.19879C23.9766 1.40208 23.903 1.59633 23.7818 1.75985L18.5454 8.79926H22.9091C23.1984 8.79926 23.4759 8.91514 23.6805 9.12141C23.8851 9.32768 24 9.60745 24 9.89916C24 10.1909 23.8851 10.4706 23.6805 10.6769C23.4759 10.8832 23.1984 10.9991 22.9091 10.9991ZM14.1817 6.59944H11.9998C11.7105 6.59944 11.433 6.48356 11.2284 6.27729C11.0238 6.07101 10.9089 5.79125 10.9089 5.49954C10.9089 5.20782 11.0238 4.92806 11.2284 4.72178C11.433 4.51551 11.7105 4.39963 11.9998 4.39963H14.1817C14.471 4.39963 14.7485 4.51551 14.9531 4.72178C15.1577 4.92806 15.2726 5.20782 15.2726 5.49954C15.2726 5.79125 15.1577 6.07101 14.9531 6.27729C14.7485 6.48356 14.471 6.59944 14.1817 6.59944Z" fill="#FFFFFF"/>
</svg>
