<svg width="24" height="22" viewBox="0 0 24 22" fill="none" xmlns="http://www.w3.org/2000/svg">
<path d="M13.1167 1.62623L15.5461 6.40495C15.7161 6.73517 16.0416 6.96632 16.4206 7.02293L21.8526 7.78714C22.8049 7.91923 23.1839 9.05612 22.4939 9.70712L18.5633 13.4291C18.2912 13.6886 18.1649 14.0613 18.228 14.4245L19.1609 19.6797C19.3212 20.5996 18.3301 21.3025 17.4798 20.8685L12.6211 18.3871C12.281 18.2126 11.8778 18.2126 11.5425 18.3871L6.68385 20.8685C5.83358 21.3025 4.83755 20.5996 5.00275 19.6797L5.92589 14.4245C5.98906 14.0613 5.86759 13.6886 5.59065 13.4291L1.65999 9.70712C0.970055 9.05612 1.34903 7.91923 2.30133 7.78714L7.73332 7.02293C8.11229 6.97104 8.43782 6.73988 8.60788 6.40495L11.0372 1.62623C11.4648 0.791256 12.694 0.791256 13.1167 1.62623Z" fill="#3066FF" stroke="#3066FF" stroke-width="1.8"/>
</svg>
