<svg width="18" height="17" viewBox="0 0 18 17" fill="none" xmlns="http://www.w3.org/2000/svg">
<path d="M9.86944 0.809058L11.8997 4.8027C12.0418 5.07867 12.3138 5.27184 12.6306 5.31915L17.1701 5.95782C17.966 6.06821 18.2827 7.01832 17.7061 7.56237L14.4212 10.6729C14.1938 10.8897 14.0883 11.2012 14.141 11.5048L14.9207 15.8966C15.0546 16.6653 14.2263 17.2528 13.5157 16.8901L9.45528 14.8164C9.17104 14.6705 8.83403 14.6705 8.55386 14.8164L4.4934 16.8901C3.78282 17.2528 2.95043 16.6653 3.08848 15.8966L3.85997 11.5048C3.91275 11.2012 3.81124 10.8897 3.5798 10.6729L0.294888 7.56237C-0.281697 7.01832 0.0350183 6.06821 0.830868 5.95782L5.37046 5.31915C5.68717 5.27578 5.95922 5.08261 6.10134 4.8027L8.13157 0.809058C8.48889 0.111255 9.51618 0.111255 9.86944 0.809058Z" fill="url(#paint0_linear)"/>
<defs>
<linearGradient id="paint0_linear" x1="9.00051" y1="0.285706" x2="9.00051" y2="17" gradientUnits="userSpaceOnUse">
<stop stop-color="#5796FD"/>
<stop offset="1" stop-color="#2F64FF"/>
</linearGradient>
</defs>
</svg>
