<svg width="20" height="20" viewBox="0 0 20 20" fill="none" xmlns="http://www.w3.org/2000/svg">
<path d="M10.8694 2.80912L12.8997 6.80276C13.0418 7.07873 13.3138 7.2719 13.6306 7.31921L18.1701 7.95788C18.966 8.06827 19.2827 9.01838 18.7061 9.56243L15.4212 12.673C15.1938 12.8898 15.0883 13.2013 15.141 13.5048L15.9207 17.8966C16.0546 18.6654 15.2263 19.2528 14.5157 18.8901L10.4553 16.8164C10.171 16.6706 9.83403 16.6706 9.55386 16.8164L5.4934 18.8901C4.78282 19.2528 3.95043 18.6654 4.08848 17.8966L4.85997 13.5048C4.91275 13.2013 4.81124 12.8898 4.5798 12.673L1.29489 9.56243C0.718303 9.01838 1.03502 8.06827 1.83087 7.95788L6.37046 7.31921C6.68717 7.27585 6.95922 7.08267 7.10134 6.80276L9.13157 2.80912C9.48889 2.11132 10.5162 2.11132 10.8694 2.80912Z" fill="#82829C"/>
</svg>
