<svg width="10" height="10" viewBox="0 0 10 10" fill="none" xmlns="http://www.w3.org/2000/svg">
<path d="M5.00008 2.9165C3.85008 2.9165 2.91675 3.84984 2.91675 4.99984C2.91675 6.14984 3.85008 7.08317 5.00008 7.08317C6.15008 7.08317 7.08341 6.14984 7.08341 4.99984C7.08341 3.84984 6.15008 2.9165 5.00008 2.9165ZM0.833415 5.4165H1.66675C1.89591 5.4165 2.08341 5.229 2.08341 4.99984C2.08341 4.77067 1.89591 4.58317 1.66675 4.58317H0.833415C0.604248 4.58317 0.416748 4.77067 0.416748 4.99984C0.416748 5.229 0.604248 5.4165 0.833415 5.4165ZM8.33341 5.4165H9.16675C9.39591 5.4165 9.58341 5.229 9.58341 4.99984C9.58341 4.77067 9.39591 4.58317 9.16675 4.58317H8.33341C8.10425 4.58317 7.91675 4.77067 7.91675 4.99984C7.91675 5.229 8.10425 5.4165 8.33341 5.4165ZM4.58341 0.833171V1.6665C4.58341 1.89567 4.77091 2.08317 5.00008 2.08317C5.22925 2.08317 5.41675 1.89567 5.41675 1.6665V0.833171C5.41675 0.604004 5.22925 0.416504 5.00008 0.416504C4.77091 0.416504 4.58341 0.604004 4.58341 0.833171ZM4.58341 8.33317V9.1665C4.58341 9.39567 4.77091 9.58317 5.00008 9.58317C5.22925 9.58317 5.41675 9.39567 5.41675 9.1665V8.33317C5.41675 8.104 5.22925 7.9165 5.00008 7.9165C4.77091 7.9165 4.58341 8.104 4.58341 8.33317ZM2.49591 1.90817C2.45737 1.86954 2.41158 1.8389 2.36117 1.81799C2.31077 1.79708 2.25673 1.78632 2.20216 1.78632C2.14759 1.78632 2.09356 1.79708 2.04315 1.81799C1.99275 1.8389 1.94696 1.86954 1.90841 1.90817C1.86979 1.94672 1.83914 1.9925 1.81823 2.04291C1.79733 2.09332 1.78656 2.14735 1.78656 2.20192C1.78656 2.25649 1.79733 2.31053 1.81823 2.36093C1.83914 2.41134 1.86979 2.45712 1.90841 2.49567L2.35008 2.93734C2.51258 3.09984 2.77925 3.09984 2.93758 2.93734C3.09591 2.77484 3.10008 2.50817 2.93758 2.34984L2.49591 1.90817ZM7.65008 7.06234C7.61153 7.02371 7.56575 6.99307 7.51534 6.97216C7.46494 6.95125 7.4109 6.94049 7.35633 6.94049C7.30176 6.94049 7.24773 6.95125 7.19732 6.97216C7.14692 6.99307 7.10113 7.02371 7.06258 7.06234C7.02395 7.10088 6.99331 7.14667 6.9724 7.19708C6.95149 7.24748 6.94073 7.30152 6.94073 7.35609C6.94073 7.41066 6.95149 7.46469 6.9724 7.5151C6.99331 7.5655 7.02395 7.61129 7.06258 7.64984L7.50425 8.0915C7.66675 8.254 7.93341 8.254 8.09175 8.0915C8.13037 8.05296 8.16102 8.00717 8.18193 7.95676C8.20284 7.90636 8.2136 7.85232 8.2136 7.79775C8.2136 7.74318 8.20284 7.68915 8.18193 7.63874C8.16102 7.58834 8.13037 7.54255 8.09175 7.504L7.65008 7.06234ZM8.09175 2.49567C8.13037 2.45712 8.16102 2.41134 8.18193 2.36093C8.20284 2.31053 8.2136 2.25649 8.2136 2.20192C8.2136 2.14735 8.20284 2.09332 8.18193 2.04291C8.16102 1.9925 8.13037 1.94672 8.09175 1.90817C8.0532 1.86954 8.00741 1.8389 7.95701 1.81799C7.9066 1.79708 7.85257 1.78632 7.798 1.78632C7.74343 1.78632 7.68939 1.79708 7.63899 1.81799C7.58858 1.8389 7.54279 1.86954 7.50425 1.90817L7.06258 2.34984C6.90008 2.51234 6.90008 2.779 7.06258 2.93734C7.22508 3.09567 7.49175 3.09984 7.65008 2.93734L8.09175 2.49567ZM2.93758 7.64984C2.97621 7.61129 3.00685 7.5655 3.02776 7.5151C3.04867 7.46469 3.05943 7.41066 3.05943 7.35609C3.05943 7.30152 3.04867 7.24748 3.02776 7.19708C3.00685 7.14667 2.97621 7.10088 2.93758 7.06234C2.89903 7.02371 2.85325 6.99307 2.80284 6.97216C2.75244 6.95125 2.6984 6.94049 2.64383 6.94049C2.58926 6.94049 2.53523 6.95125 2.48482 6.97216C2.43442 6.99307 2.38863 7.02371 2.35008 7.06234L1.90841 7.504C1.74591 7.6665 1.74591 7.93317 1.90841 8.0915C2.07091 8.24984 2.33758 8.254 2.49591 8.0915L2.93758 7.64984Z" fill="white"/>
</svg>
