<svg width="10" height="10" viewBox="0 0 10 10" fill="none" xmlns="http://www.w3.org/2000/svg">
<path d="M5 1C4.20888 1 3.43552 1.2346 2.77772 1.67412C2.11992 2.11365 1.60723 2.73836 1.30448 3.46927C1.00173 4.20017 0.92252 5.00444 1.07686 5.78036C1.2312 6.55628 1.61216 7.26901 2.17157 7.82842C2.73098 8.38784 3.44372 8.7688 4.21964 8.92314C4.99556 9.07748 5.79983 8.99827 6.53073 8.69552C7.26164 8.39277 7.88635 7.88008 8.32588 7.22228C8.7654 6.56448 9 5.79112 9 5C9 4.79555 8.98222 4.59111 8.95555 4.39555C8.73348 4.70696 8.44005 4.96065 8.09983 5.1354C7.75961 5.31015 7.38248 5.40088 7 5.4C6.4912 5.40001 5.99555 5.23841 5.58453 4.93851C5.17351 4.63861 4.86838 4.21591 4.71313 3.73138C4.55788 3.24685 4.56054 2.72552 4.72074 2.2426C4.88094 1.75968 5.19038 1.34012 5.60444 1.04444C5.40889 1.01778 5.20444 1 5 1Z" fill="white"/>
</svg>
