<svg width="14" height="15" viewBox="0 0 14 15" fill="none" xmlns="http://www.w3.org/2000/svg">
<path fill-rule="evenodd" clip-rule="evenodd" d="M6.77708 12.5251C6.70597 12.5964 6.62149 12.6529 6.52848 12.6915C6.43548 12.7301 6.33577 12.75 6.23508 12.75C6.13438 12.75 6.03468 12.7301 5.94167 12.6915C5.84866 12.6529 5.76419 12.5964 5.69307 12.5251L1.09984 7.93186C1.02854 7.86075 0.971983 7.77627 0.93339 7.68326C0.894797 7.59026 0.874932 7.49055 0.874932 7.38986C0.874932 7.28916 0.894797 7.18946 0.93339 7.09645C0.971983 7.00344 1.02854 6.91897 1.09984 6.84785L5.69307 2.25462C5.83682 2.11087 6.03179 2.03011 6.23508 2.03011C6.43837 2.03011 6.63333 2.11087 6.77708 2.25462C6.92083 2.39836 7.00158 2.59333 7.00158 2.79662C7.00158 2.99991 6.92083 3.19487 6.77708 3.33862L2.72431 7.38986L6.77708 11.4411C6.84837 11.5122 6.90493 11.5967 6.94353 11.6897C6.98212 11.7827 7.00198 11.8824 7.00198 11.9831C7.00198 12.0838 6.98212 12.1835 6.94353 12.2765C6.90493 12.3695 6.84837 12.454 6.77708 12.5251Z" fill="#82829C"/>
<path fill-rule="evenodd" clip-rule="evenodd" d="M13.125 7.38984C13.125 7.59287 13.0443 7.78759 12.9008 7.93116C12.7572 8.07473 12.5625 8.15538 12.3595 8.15538H2.40745C2.20441 8.15538 2.0097 8.07473 1.86613 7.93116C1.72256 7.78759 1.64191 7.59287 1.64191 7.38984C1.64191 7.18681 1.72256 6.99209 1.86613 6.84852C2.0097 6.70496 2.20441 6.6243 2.40745 6.6243H12.3595C12.5625 6.6243 12.7572 6.70496 12.9008 6.84852C13.0443 6.99209 13.125 7.18681 13.125 7.38984Z" fill="#82829C"/>
</svg>
