<svg width="14" height="14" viewBox="0 0 14 14" fill="none" xmlns="http://www.w3.org/2000/svg">
<path fill-rule="evenodd" clip-rule="evenodd" d="M7.22292 1.97491C7.29403 1.90361 7.37851 1.84705 7.47151 1.80846C7.56452 1.76986 7.66423 1.75 7.76492 1.75C7.86562 1.75 7.96532 1.76986 8.05833 1.80846C8.15133 1.84705 8.23581 1.90361 8.30692 1.97491L12.9002 6.56814C12.9715 6.63925 13.028 6.72373 13.0666 6.81674C13.1052 6.90974 13.1251 7.00945 13.1251 7.11014C13.1251 7.21084 13.1052 7.31054 13.0666 7.40355C13.028 7.49656 12.9715 7.58103 12.9002 7.65215L8.30692 12.2454C8.16317 12.3891 7.96821 12.4699 7.76492 12.4699C7.56163 12.4699 7.36667 12.3891 7.22292 12.2454C7.07917 12.1016 6.99841 11.9067 6.99841 11.7034C6.99841 11.5001 7.07917 11.3051 7.22292 11.1614L11.2757 7.11014L7.22292 3.05891C7.15163 2.9878 7.09506 2.90332 7.05647 2.81031C7.01788 2.71731 6.99801 2.6176 6.99801 2.51691C6.99801 2.41621 7.01788 2.31651 7.05647 2.2235C7.09506 2.1305 7.15163 2.04602 7.22292 1.97491Z" fill="url(#paint0_linear)"/>
<path fill-rule="evenodd" clip-rule="evenodd" d="M0.875 7.11016C0.875 6.90713 0.955655 6.71241 1.09922 6.56884C1.24279 6.42527 1.43751 6.34462 1.64054 6.34462H11.5926C11.7956 6.34462 11.9903 6.42527 12.1339 6.56884C12.2774 6.71241 12.3581 6.90713 12.3581 7.11016C12.3581 7.31319 12.2774 7.50791 12.1339 7.65148C11.9903 7.79504 11.7956 7.8757 11.5926 7.8757H1.64054C1.43751 7.8757 1.24279 7.79504 1.09922 7.65148C0.955655 7.50791 0.875 7.31319 0.875 7.11016Z" fill="url(#paint1_linear)"/>
<defs>
<linearGradient id="paint0_linear" x1="10.0615" y1="1.75" x2="10.0615" y2="12.4699" gradientUnits="userSpaceOnUse">
<stop stop-color="#5695FD"/>
<stop offset="1" stop-color="#1554FF"/>
</linearGradient>
<linearGradient id="paint1_linear" x1="6.61655" y1="6.34462" x2="6.61655" y2="7.8757" gradientUnits="userSpaceOnUse">
<stop stop-color="#5695FD"/>
<stop offset="1" stop-color="#1554FF"/>
</linearGradient>
</defs>
</svg>
