<svg xmlns="http://www.w3.org/2000/svg" width="32" height="32" fill-rule="evenodd"><circle fill="#0075b8" cx="16" cy="16" r="16"/><path d="M12.893 13.807v7.08h-2.357v-7.08h2.357zm.15-2.186a1.13 1.13 0 0 1-.361.871c-.245.233-.568.35-.968.35H11.7c-.4 0-.705-.117-.943-.35a1.17 1.17 0 0 1-.357-.871 1.15 1.15 0 0 1 .368-.875c.245-.23.565-.346.96-.346s.712.115.95.346a1.19 1.19 0 0 1 .364.875zm3.5 3.192a3.07 3.07 0 0 1 .279-.377c.1-.114.235-.238.404-.37s.376-.237.62-.31a2.83 2.83 0 0 1 .818-.111c.814 0 1.47.27 1.964.81s.743 1.332.743 2.375v4.057h-2.35V17.1c0-.5-.096-.892-.29-1.175s-.494-.425-.904-.425c-.3 0-.55.082-.754.246a1.52 1.52 0 0 0-.454.611c-.052.143-.08.336-.08.58v3.95h-2.35l.014-4.62-.007-2.114-.007-.343h2.35v1.006z" fill="#fff"/></svg>