<svg xmlns="http://www.w3.org/2000/svg" width="32" height="32" fill-rule="evenodd"><circle fill="#069ff5" cx="16" cy="16" r="16"/><path d="M21.952 12.404c-.314.488-.733.925-1.256 1.308v.314c0 1.832-.66 3.494-1.976 4.985s-3.066 2.237-5.247 2.237A6.99 6.99 0 0 1 9.6 20.098l.602.052a4.92 4.92 0 0 0 3.14-1.099c-.54-.017-1.03-.188-1.465-.5s-.733-.737-.9-1.243a3.15 3.15 0 0 0 .471.052c.174 0 .4-.035.68-.105-.576-.122-1.06-.414-1.452-.877a2.41 2.41 0 0 1-.589-1.609v-.026c.384.21.768.314 1.15.314-.75-.488-1.125-1.195-1.125-2.12 0-.436.113-.855.34-1.256 1.343 1.657 3.08 2.538 5.208 2.643-.035-.122-.052-.314-.052-.576 0-.715.244-1.317.733-1.806s1.1-.733 1.806-.733 1.326.27 1.832.81c.523-.087 1.064-.297 1.623-.628a2.32 2.32 0 0 1-1.125 1.413c.54-.052 1.03-.183 1.465-.393z" fill="#fff"/></svg>