<svg xmlns="http://www.w3.org/2000/svg" width="32" height="32" fill-rule="evenodd"><circle fill="#e92100" cx="16" cy="16" r="16"/><path d="M22.325 13.325L22.4 16l-.075 2.675c0 .567-.18 1.046-.537 1.438a1.71 1.71 0 0 1-1.312.587L16 20.8c-1.7 0-3.192-.033-4.475-.1a1.71 1.71 0 0 1-1.312-.587c-.358-.392-.537-.87-.537-1.437L9.6 16l.1-2.675c0-.567.175-1.046.525-1.437s.783-.587 1.3-.587l4.25-.1h.45l4.25.1a1.71 1.71 0 0 1 1.313.587c.358.392.537.87.537 1.438zm-7.55 5.125L18.4 16l-3.625-2.475v4.925z" fill="#fff"/></svg>