<svg width="42" height="42" viewBox="0 0 42 42" fill="none" xmlns="http://www.w3.org/2000/svg">
<circle cx="21" cy="21" r="20" fill="white" fill-opacity="0.1"/>
<path d="M24.2961 29.657H24.3961C22.3048 29.3942 22.1328 27.9941 22.1205 27.6854H25.2039V24.3393H10.5602C10.4095 24.3393 10.2868 24.2166 10.2868 24.0659V12.5602C10.2868 12.4095 10.4095 12.2868 10.5602 12.2868H14.6965H15.1414H24.3016H25.1869H28.8958C29.0466 12.2868 29.1692 12.4095 29.1692 12.5602V18.1886H30.4561V12.5602C30.4561 11.7 29.7561 11 28.8958 11H25.1869H24.3016H15.1414H14.6965H10.5602C9.69996 11 9 11.7 9 12.5602V24.0659C9 24.0722 9.00053 24.0786 9.00053 24.085V26.1718C9.00027 26.1801 9 26.1883 9 26.1965V26.3112C9 26.3194 9.00053 26.3276 9.00053 26.3359V26.3651H9.00133C9.02973 27.0993 9.63333 27.6856 10.3744 27.6856H17.3355C17.323 27.9941 17.1513 29.3945 15.0599 29.6573H15.1271C14.7969 29.6573 14.529 29.9251 14.529 30.2553C14.529 30.5855 14.7969 30.8533 15.1271 30.8533H24.2963C24.6265 30.8533 24.8944 30.5855 24.8944 30.2553C24.8944 29.9251 24.6263 29.657 24.2961 29.657ZM19.7282 26.9098C19.3066 26.9098 18.965 26.5681 18.965 26.1466C18.965 25.7251 19.3066 25.3835 19.7282 25.3835C20.1497 25.3835 20.4913 25.7251 20.4913 26.1466C20.4913 26.5681 20.1497 26.9098 19.7282 26.9098ZM31.3453 18.9405H27.7717C26.8578 18.9405 26.1172 19.6814 26.1172 20.595V29.1986C26.1172 30.1125 26.8581 30.8531 27.7717 30.8531H31.3455C32.2594 30.8531 33 30.1122 33 29.1986V20.595C33 19.6811 32.2592 18.9405 31.3453 18.9405ZM29.5583 29.9347C29.1891 29.9347 28.8897 29.6353 28.8897 29.266C28.8897 28.8968 29.1891 28.5974 29.5583 28.5974C29.9276 28.5974 30.227 28.8968 30.227 29.266C30.2272 29.6353 29.9278 29.9347 29.5583 29.9347Z" fill="white"/>
</svg>
