<svg width="42" height="42" viewBox="0 0 42 42" fill="none" xmlns="http://www.w3.org/2000/svg">
<circle cx="21" cy="21" r="20" fill="white" fill-opacity="0.1"/>
<path d="M30.5407 24C30.8383 23.0528 30.9999 22.0454 30.9999 21C30.9999 19.9546 30.8383 18.9472 30.5407 18H25.8162C25.938 18.9854 25.9999 19.9985 25.9999 21C25.9999 22.0015 25.938 23.0146 25.8162 24H30.5407Z" fill="white"/>
<path d="M23.436 16C22.8123 13.4749 21.7915 12 21 12C20.2085 12 19.1877 13.4749 18.564 16H23.436Z" fill="white"/>
<path d="M16 21C16 19.9985 16.0619 18.9854 16.1838 18H11.4592C11.1617 18.9472 11 19.9546 11 21C11 22.0454 11.1617 23.0528 11.4592 24H16.1838C16.0619 23.0146 16 22.0015 16 21Z" fill="white"/>
<path d="M18.564 26C19.1877 28.5251 20.2085 30 21 30C21.7915 30 22.8123 28.5251 23.436 26H18.564Z" fill="white"/>
<path d="M23.8091 18H18.1909C18.0709 18.9163 18 19.9178 18 21C18 22.0822 18.0709 23.0837 18.1909 24H23.8091C23.9291 23.0837 24 22.0822 24 21C24 19.9178 23.9291 18.9163 23.8091 18Z" fill="white"/>
<path d="M25.4736 16H29.6512C28.3187 13.6998 26.0992 11.9858 23.4575 11.3169C24.3712 12.4072 25.0499 14.0803 25.4736 16Z" fill="white"/>
<path d="M16.5263 26H12.3488C13.6813 28.3002 15.9008 30.0142 18.5424 30.6831C17.6287 29.5928 16.9501 27.9197 16.5263 26Z" fill="white"/>
<path d="M25.4736 26C25.0499 27.9197 24.3712 29.5928 23.4575 30.6831C26.0992 30.0142 28.3187 28.3002 29.6512 26H25.4736Z" fill="white"/>
<path d="M16.5263 16C16.9501 14.0803 17.6287 12.4072 18.5424 11.3169C15.9008 11.9858 13.6813 13.6998 12.3488 16H16.5263Z" fill="white"/>
</svg>
