<svg width="42" height="42" viewBox="0 0 42 42" fill="none" xmlns="http://www.w3.org/2000/svg">
<circle cx="21" cy="21" r="20" fill="white" fill-opacity="0.1"/>
<path d="M27.4375 18.25H26.75V15.5C26.75 12.4668 24.2832 10 21.25 10C18.2167 10 15.75 12.4668 15.75 15.5V18.25H15.0625C13.9258 18.25 13 19.1749 13 20.3125V29.9375C13 31.0751 13.9258 32 15.0625 32H27.4375C28.5742 32 29.5 31.0751 29.5 29.9375V20.3125C29.5 19.1749 28.5742 18.25 27.4375 18.25ZM17.5833 15.5C17.5833 13.4778 19.2278 11.8333 21.25 11.8333C23.2722 11.8333 24.9167 13.4778 24.9167 15.5V18.25H17.5833V15.5ZM22.1667 25.3285V27.4167C22.1667 27.9227 21.7569 28.3333 21.25 28.3333C20.7431 28.3333 20.3333 27.9227 20.3333 27.4167V25.3285C19.7879 25.0104 19.4167 24.4256 19.4167 23.75C19.4167 22.7389 20.2389 21.9167 21.25 21.9167C22.2611 21.9167 23.0833 22.7389 23.0833 23.75C23.0833 24.4256 22.7121 25.0104 22.1667 25.3285Z" fill="white"/>
</svg>
