<svg width="42" height="42" viewBox="0 0 42 42" fill="none" xmlns="http://www.w3.org/2000/svg">
<circle cx="21" cy="21" r="20" fill="white" fill-opacity="0.1"/>
<path d="M31.1398 15.1669C31.1153 14.53 31.1153 13.9176 31.1153 13.3297C31.1153 12.8643 30.7479 12.4968 30.2824 12.4968C26.6815 12.4723 23.938 11.4435 21.6598 9.23884C21.3414 8.92039 20.8025 8.92039 20.484 9.23884C18.2059 11.4435 15.4623 12.4723 11.8859 12.4723C11.4205 12.4723 11.0531 12.8398 11.0531 13.3052C11.0531 13.8931 11.0531 14.5055 11.0286 15.1669C10.9061 21.2174 10.7346 29.4726 20.8025 32.951C20.9005 32.9755 20.974 33 21.0719 33C21.1699 33 21.2679 32.9755 21.3414 32.951C31.4093 29.4726 31.2378 21.2174 31.1398 15.1669ZM21.0719 31.2608C12.4493 28.1253 12.5718 21.2664 12.6943 15.2159C12.6943 14.8484 12.7188 14.5055 12.7188 14.1625C16.0747 13.9911 18.7693 12.9867 21.0719 10.9781C23.3746 12.9867 26.0691 14.0156 29.4251 14.138C29.4251 14.481 29.4251 14.8239 29.4496 15.1914C29.5721 21.2664 29.6945 28.1253 21.0719 31.2608Z" fill="white" stroke="white" stroke-width="0.5"/>
<path d="M23.9625 18.0819L19.9206 22.1238L18.1814 20.3846C17.863 20.0661 17.324 20.0661 16.9811 20.3846C16.6627 20.703 16.6627 21.2419 16.9811 21.5849L19.3082 23.912C19.4797 24.0835 19.6757 24.157 19.8961 24.157C20.1166 24.157 20.3371 24.0835 20.484 23.912L25.1383 19.2577C25.4567 18.9393 25.4567 18.4004 25.1383 18.0574C24.8198 17.739 24.2809 17.739 23.9625 18.0819Z" fill="white" stroke="white" stroke-width="0.5"/>
</svg>
