<svg width="42" height="42" viewBox="0 0 42 42" fill="none" xmlns="http://www.w3.org/2000/svg">
<circle cx="21" cy="21" r="20" fill="white" fill-opacity="0.1"/>
<path d="M16.1756 28H13.3356V14.66H16.1756V28ZM21.6639 28H18.8239V14.66H25.0639C26.4639 14.66 27.5572 15.0733 28.3439 15.9C29.1439 16.7133 29.5439 17.7333 29.5439 18.96C29.5439 20.1733 29.1439 21.1933 28.3439 22.02C27.5439 22.8467 26.4506 23.26 25.0639 23.26H21.6639V28ZM24.6839 20.76C25.2572 20.76 25.7239 20.6 26.0839 20.28C26.4572 19.9467 26.6439 19.5067 26.6439 18.96C26.6439 18.4133 26.4572 17.98 26.0839 17.66C25.7239 17.3267 25.2572 17.16 24.6839 17.16H21.6639V20.76H24.6839Z" fill="white"/>
</svg>
