<svg width="42" height="42" viewBox="0 0 42 42" fill="none" xmlns="http://www.w3.org/2000/svg">
<circle cx="21" cy="21" r="20" fill="white" fill-opacity="0.1"/>
<path fill-rule="evenodd" clip-rule="evenodd" d="M21.5884 11C26.2248 11 30.0516 14.7292 30.0516 19.319C30.0516 22.9047 26.372 27.9965 22.9867 30.5783C22.1772 31.152 21.0733 31.152 20.2638 30.5066C16.9521 27.7814 13.0516 23.1916 13.0516 19.319C13.0516 14.7292 16.8785 11 21.5884 11ZM21.5884 15.3746C23.7962 15.3746 25.5625 17.0958 25.5625 19.319C25.5625 21.4704 23.7962 23.1916 21.5884 23.1916C19.307 23.1916 17.5408 21.4704 17.5408 19.319C17.5408 17.0958 19.307 15.3746 21.5884 15.3746Z" fill="white"/>
</svg>
