<svg width="42" height="42" viewBox="0 0 42 42" fill="none" xmlns="http://www.w3.org/2000/svg">
<circle cx="21" cy="21" r="20" fill="white" fill-opacity="0.1"/>
<path d="M28.1579 15.5895V27.6737C28.1579 29.5053 26.6632 31 24.8316 31H18.7474C17.8421 31 17 30.6421 16.3684 30.0105L9.8421 23.3579C9.8421 23.3579 10.8947 22.3263 10.9158 22.3263C11.1053 22.1579 11.3158 22.0947 11.5684 22.0947C11.7579 22.0947 11.9263 22.1368 12.0737 22.2211C12.1158 22.2211 15.6737 24.2632 15.6737 24.2632V14.3263C15.6737 13.6316 16.2421 13.0842 16.9158 13.0842C17.6105 13.0842 18.1579 13.6526 18.1579 14.3263V20.1579H19V12.2421C19 11.5474 19.5684 11 20.2421 11C20.9158 11 21.4842 11.5684 21.4842 12.2421V20.1579H22.3263V13.0842C22.3263 12.3895 22.8947 11.8421 23.5684 11.8421C24.2421 11.8421 24.8105 12.4105 24.8105 13.0842V20.1579H25.6526V15.5895C25.6526 14.8947 26.2211 14.3474 26.8947 14.3474C27.5684 14.3474 28.1579 14.8947 28.1579 15.5895Z" fill="white"/>
</svg>
